<svg width="266" height="420" viewBox="0 0 266 420" fill="none" xmlns="http://www.w3.org/2000/svg">
<g filter="url(#filter0_dd_1_1236)">
<rect x="5" y="4" width="256" height="56" rx="8" fill="white"/>
<path d="M31.5 36.5C32.2879 36.5 33.0682 36.3448 33.7961 36.0433C34.5241 35.7418 35.1855 35.2998 35.7427 34.7427C36.2998 34.1855 36.7418 33.5241 37.0433 32.7961C37.3448 32.0682 37.5 31.2879 37.5 30.5C37.5 29.7121 37.3448 28.9319 37.0433 28.2039C36.7418 27.476 36.2998 26.8145 35.7427 26.2574C35.1855 25.7002 34.5241 25.2583 33.7961 24.9567C33.0682 24.6552 32.2879 24.5 31.5 24.5C29.9087 24.5 28.3826 25.1322 27.2574 26.2574C26.1322 27.3826 25.5 28.9087 25.5 30.5C25.5 32.0913 26.1322 33.6174 27.2574 34.7427C28.3826 35.8679 29.9087 36.5 31.5 36.5ZM37.82 35.406L41.4 38.986C41.4955 39.0783 41.5716 39.1887 41.6239 39.3108C41.6762 39.4328 41.7037 39.564 41.7048 39.6968C41.7058 39.8296 41.6804 39.9613 41.63 40.0841C41.5797 40.207 41.5053 40.3186 41.4114 40.4124C41.3174 40.5062 41.2057 40.5804 41.0828 40.6306C40.9599 40.6808 40.8282 40.706 40.6954 40.7048C40.5626 40.7035 40.4314 40.6758 40.3095 40.6233C40.1875 40.5708 40.0772 40.4946 39.985 40.399L36.405 36.819C34.7975 38.0669 32.7748 38.6552 30.7488 38.4642C28.7227 38.2732 26.8456 37.3173 25.4996 35.7911C24.1535 34.2648 23.4397 32.283 23.5034 30.2489C23.5672 28.2149 24.4037 26.2816 25.8427 24.8427C27.2816 23.4037 29.2149 22.5672 31.2489 22.5034C33.283 22.4397 35.2648 23.1535 36.7911 24.4996C38.3173 25.8456 39.2732 27.7227 39.4642 29.7488C39.6552 31.7748 39.0669 33.7975 37.819 35.405L37.82 35.406Z" fill="#0F172A"/>
<path d="M67.7773 32.5742H64.1543L64.1348 30.7871H67.2988C67.8327 30.7871 68.2852 30.709 68.6562 30.5527C69.0339 30.39 69.3203 30.1589 69.5156 29.8594C69.7109 29.5534 69.8086 29.1855 69.8086 28.7559C69.8086 28.2806 69.7174 27.8932 69.5352 27.5938C69.3529 27.2943 69.0729 27.0762 68.6953 26.9395C68.3242 26.8027 67.849 26.7344 67.2695 26.7344H64.8965V39H62.4453V24.7812H67.2695C68.0508 24.7812 68.7474 24.8561 69.3594 25.0059C69.9779 25.1556 70.502 25.39 70.9316 25.709C71.3678 26.0215 71.6966 26.4186 71.918 26.9004C72.1458 27.3822 72.2598 27.9551 72.2598 28.6191C72.2598 29.2051 72.1198 29.7422 71.8398 30.2305C71.5599 30.7122 71.1465 31.1061 70.5996 31.4121C70.0527 31.7181 69.3724 31.9004 68.5586 31.959L67.7773 32.5742ZM67.6699 39H63.3828L64.4863 37.0566H67.6699C68.2233 37.0566 68.6855 36.9655 69.0566 36.7832C69.4277 36.5944 69.7044 36.3372 69.8867 36.0117C70.0755 35.6797 70.1699 35.2923 70.1699 34.8496C70.1699 34.3874 70.0885 33.987 69.9258 33.6484C69.763 33.3034 69.5059 33.0397 69.1543 32.8574C68.8027 32.6686 68.3438 32.5742 67.7773 32.5742H65.0234L65.043 30.7871H68.627L69.1836 31.4609C69.9648 31.487 70.6061 31.6595 71.1074 31.9785C71.6152 32.2975 71.9928 32.7109 72.2402 33.2188C72.4876 33.7266 72.6113 34.2734 72.6113 34.8594C72.6113 35.7643 72.4128 36.5228 72.0156 37.1348C71.625 37.7467 71.0618 38.2122 70.3262 38.5312C69.5905 38.8438 68.7051 39 67.6699 39ZM77.8672 28.4336V39H75.5039V28.4336H77.8672ZM75.3477 25.6602C75.3477 25.3021 75.4648 25.0059 75.6992 24.7715C75.9401 24.5306 76.2721 24.4102 76.6953 24.4102C77.112 24.4102 77.4408 24.5306 77.6816 24.7715C77.9225 25.0059 78.043 25.3021 78.043 25.6602C78.043 26.0117 77.9225 26.3047 77.6816 26.5391C77.4408 26.7734 77.112 26.8906 76.6953 26.8906C76.2721 26.8906 75.9401 26.7734 75.6992 26.5391C75.4648 26.3047 75.3477 26.0117 75.3477 25.6602ZM80.9551 24H83.3086V36.7441L83.084 39H80.9551V24ZM90.2031 33.6191V33.8242C90.2031 34.6055 90.1152 35.3249 89.9395 35.9824C89.7702 36.6335 89.5098 37.1999 89.1582 37.6816C88.8132 38.1634 88.3835 38.5378 87.8691 38.8047C87.3613 39.0651 86.7721 39.1953 86.1016 39.1953C85.444 39.1953 84.8711 39.0716 84.3828 38.8242C83.8945 38.5768 83.4844 38.2253 83.1523 37.7695C82.8268 37.3138 82.5632 36.7702 82.3613 36.1387C82.1595 35.5072 82.0163 34.8105 81.9316 34.0488V33.3945C82.0163 32.6263 82.1595 31.9297 82.3613 31.3047C82.5632 30.6732 82.8268 30.1296 83.1523 29.6738C83.4844 29.2116 83.8913 28.8568 84.373 28.6094C84.8613 28.362 85.431 28.2383 86.082 28.2383C86.7591 28.2383 87.3548 28.3685 87.8691 28.6289C88.39 28.8893 88.8229 29.2604 89.168 29.7422C89.513 30.2174 89.7702 30.7839 89.9395 31.4414C90.1152 32.099 90.2031 32.8249 90.2031 33.6191ZM87.8496 33.8242V33.6191C87.8496 33.1439 87.8105 32.6979 87.7324 32.2812C87.6543 31.8581 87.5241 31.487 87.3418 31.168C87.166 30.849 86.9251 30.5983 86.6191 30.416C86.3197 30.2272 85.9453 30.1328 85.4961 30.1328C85.0794 30.1328 84.7214 30.2044 84.4219 30.3477C84.1224 30.4909 83.8717 30.6862 83.6699 30.9336C83.4681 31.181 83.3086 31.4674 83.1914 31.793C83.0807 32.1185 83.0059 32.4701 82.9668 32.8477V34.6152C83.0254 35.1035 83.1491 35.5527 83.3379 35.9629C83.5332 36.3665 83.8066 36.6921 84.1582 36.9395C84.5098 37.1803 84.9622 37.3008 85.5156 37.3008C85.9518 37.3008 86.3197 37.2129 86.6191 37.0371C86.9186 36.8613 87.1562 36.6172 87.332 36.3047C87.5143 35.9857 87.6445 35.6146 87.7227 35.1914C87.8073 34.7682 87.8496 34.3125 87.8496 33.8242ZM97.3535 39.1953C96.5723 39.1953 95.8659 39.0684 95.2344 38.8145C94.6094 38.554 94.0755 38.1927 93.6328 37.7305C93.1966 37.2682 92.8613 36.7246 92.627 36.0996C92.3926 35.4746 92.2754 34.8008 92.2754 34.0781V33.6875C92.2754 32.8607 92.3958 32.112 92.6367 31.4414C92.8776 30.7708 93.2129 30.1979 93.6426 29.7227C94.0723 29.2409 94.5801 28.873 95.166 28.6191C95.752 28.3652 96.3867 28.2383 97.0703 28.2383C97.8255 28.2383 98.4863 28.3652 99.0527 28.6191C99.6191 28.873 100.088 29.2311 100.459 29.6934C100.837 30.1491 101.117 30.6927 101.299 31.3242C101.488 31.9557 101.582 32.6523 101.582 33.4141V34.4199H93.418V32.7305H99.2578V32.5449C99.2448 32.1217 99.1602 31.7246 99.0039 31.3535C98.8542 30.9824 98.623 30.6829 98.3105 30.4551C97.998 30.2272 97.5814 30.1133 97.0605 30.1133C96.6699 30.1133 96.3216 30.1979 96.0156 30.3672C95.7161 30.5299 95.4655 30.7676 95.2637 31.0801C95.0618 31.3926 94.9056 31.7702 94.7949 32.2129C94.6908 32.6491 94.6387 33.1406 94.6387 33.6875V34.0781C94.6387 34.5404 94.7005 34.9701 94.8242 35.3672C94.9544 35.7578 95.1432 36.0996 95.3906 36.3926C95.638 36.6855 95.9375 36.9167 96.2891 37.0859C96.6406 37.2487 97.041 37.3301 97.4902 37.3301C98.0566 37.3301 98.5612 37.2161 99.0039 36.9883C99.4466 36.7604 99.8307 36.4382 100.156 36.0215L101.396 37.2227C101.169 37.5547 100.872 37.8737 100.508 38.1797C100.143 38.4792 99.6973 38.7233 99.1699 38.9121C98.6491 39.1009 98.0436 39.1953 97.3535 39.1953ZM106.252 30.6895V39H103.898V28.4336H106.115L106.252 30.6895ZM105.832 33.3262L105.07 33.3164C105.077 32.5677 105.181 31.8809 105.383 31.2559C105.591 30.6309 105.878 30.0938 106.242 29.6445C106.613 29.1953 107.056 28.8503 107.57 28.6094C108.085 28.362 108.658 28.2383 109.289 28.2383C109.797 28.2383 110.256 28.3099 110.666 28.4531C111.083 28.5898 111.438 28.8145 111.73 29.127C112.03 29.4395 112.258 29.8464 112.414 30.3477C112.57 30.8424 112.648 31.4512 112.648 32.1738V39H110.285V32.1641C110.285 31.6562 110.21 31.2559 110.061 30.9629C109.917 30.6634 109.706 30.4518 109.426 30.3281C109.152 30.1979 108.811 30.1328 108.4 30.1328C107.997 30.1328 107.635 30.2174 107.316 30.3867C106.997 30.556 106.727 30.7871 106.506 31.0801C106.291 31.373 106.125 31.7116 106.008 32.0957C105.891 32.4798 105.832 32.89 105.832 33.3262ZM121.996 36.8125V24H124.359V39H122.221L121.996 36.8125ZM115.121 33.834V33.6289C115.121 32.8281 115.215 32.099 115.404 31.4414C115.593 30.7773 115.867 30.2077 116.225 29.7324C116.583 29.2507 117.019 28.8828 117.533 28.6289C118.048 28.3685 118.627 28.2383 119.271 28.2383C119.91 28.2383 120.469 28.362 120.951 28.6094C121.433 28.8568 121.843 29.2116 122.182 29.6738C122.52 30.1296 122.79 30.6764 122.992 31.3145C123.194 31.946 123.337 32.6491 123.422 33.4238V34.0781C123.337 34.8333 123.194 35.5234 122.992 36.1484C122.79 36.7734 122.52 37.3138 122.182 37.7695C121.843 38.2253 121.43 38.5768 120.941 38.8242C120.46 39.0716 119.896 39.1953 119.252 39.1953C118.614 39.1953 118.038 39.0618 117.523 38.7949C117.016 38.528 116.583 38.1536 116.225 37.6719C115.867 37.1901 115.593 36.6237 115.404 35.9727C115.215 35.3151 115.121 34.6022 115.121 33.834ZM117.475 33.6289V33.834C117.475 34.3158 117.517 34.765 117.602 35.1816C117.693 35.5983 117.833 35.9661 118.021 36.2852C118.21 36.5977 118.454 36.8451 118.754 37.0273C119.06 37.2031 119.424 37.291 119.848 37.291C120.382 37.291 120.821 37.1738 121.166 36.9395C121.511 36.7051 121.781 36.3893 121.977 35.9922C122.178 35.5885 122.315 35.1393 122.387 34.6445V32.877C122.348 32.4928 122.266 32.1348 122.143 31.8027C122.025 31.4707 121.866 31.181 121.664 30.9336C121.462 30.6797 121.212 30.4844 120.912 30.3477C120.619 30.2044 120.271 30.1328 119.867 30.1328C119.438 30.1328 119.073 30.224 118.773 30.4062C118.474 30.5885 118.227 30.8392 118.031 31.1582C117.842 31.4772 117.702 31.8483 117.611 32.2715C117.52 32.6947 117.475 33.1471 117.475 33.6289ZM133.678 36.5098V28.4336H136.041V39H133.814L133.678 36.5098ZM134.01 34.3125L134.801 34.293C134.801 35.0026 134.723 35.6569 134.566 36.2559C134.41 36.8483 134.169 37.3659 133.844 37.8086C133.518 38.2448 133.102 38.5866 132.594 38.834C132.086 39.0749 131.477 39.1953 130.768 39.1953C130.253 39.1953 129.781 39.1204 129.352 38.9707C128.922 38.821 128.551 38.5898 128.238 38.2773C127.932 37.9648 127.695 37.5579 127.525 37.0566C127.356 36.5553 127.271 35.9564 127.271 35.2598V28.4336H129.625V35.2793C129.625 35.6634 129.671 35.9857 129.762 36.2461C129.853 36.5 129.977 36.7051 130.133 36.8613C130.289 37.0176 130.471 37.1283 130.68 37.1934C130.888 37.2585 131.109 37.291 131.344 37.291C132.014 37.291 132.542 37.1608 132.926 36.9004C133.316 36.6335 133.593 36.2754 133.756 35.8262C133.925 35.377 134.01 34.8724 134.01 34.3125ZM141.307 30.582V39H138.953V28.4336H141.17L141.307 30.582ZM140.926 33.3262L140.125 33.3164C140.125 32.5872 140.216 31.9134 140.398 31.2949C140.581 30.6764 140.848 30.1393 141.199 29.6836C141.551 29.2214 141.987 28.8665 142.508 28.6191C143.035 28.3652 143.644 28.2383 144.334 28.2383C144.816 28.2383 145.255 28.3099 145.652 28.4531C146.056 28.5898 146.404 28.8079 146.697 29.1074C146.997 29.4069 147.225 29.791 147.381 30.2598C147.544 30.7285 147.625 31.2949 147.625 31.959V39H145.271V32.1641C145.271 31.6497 145.193 31.2461 145.037 30.9531C144.887 30.6602 144.669 30.4518 144.383 30.3281C144.103 30.1979 143.768 30.1328 143.377 30.1328C142.934 30.1328 142.557 30.2174 142.244 30.3867C141.938 30.556 141.688 30.7871 141.492 31.0801C141.297 31.373 141.154 31.7116 141.062 32.0957C140.971 32.4798 140.926 32.89 140.926 33.3262ZM147.479 32.7012L146.375 32.9453C146.375 32.3073 146.463 31.7051 146.639 31.1387C146.821 30.5658 147.085 30.0645 147.43 29.6348C147.781 29.1986 148.214 28.8568 148.729 28.6094C149.243 28.362 149.832 28.2383 150.496 28.2383C151.036 28.2383 151.518 28.3132 151.941 28.4629C152.371 28.6061 152.736 28.834 153.035 29.1465C153.335 29.459 153.562 29.8659 153.719 30.3672C153.875 30.862 153.953 31.4609 153.953 32.1641V39H151.59V32.1543C151.59 31.6204 151.512 31.207 151.355 30.9141C151.206 30.6211 150.991 30.4193 150.711 30.3086C150.431 30.1914 150.096 30.1328 149.705 30.1328C149.34 30.1328 149.018 30.2012 148.738 30.3379C148.465 30.4681 148.234 30.6536 148.045 30.8945C147.856 31.1289 147.713 31.3991 147.615 31.7051C147.524 32.0111 147.479 32.3431 147.479 32.7012ZM167.199 28.4336V30.1523H161.242V28.4336H167.199ZM162.961 25.8457H165.314V36.0801C165.314 36.4056 165.36 36.6562 165.451 36.832C165.549 37.0013 165.682 37.1152 165.852 37.1738C166.021 37.2324 166.219 37.2617 166.447 37.2617C166.61 37.2617 166.766 37.252 166.916 37.2324C167.066 37.2129 167.186 37.1934 167.277 37.1738L167.287 38.9707C167.092 39.0293 166.864 39.0814 166.604 39.127C166.35 39.1725 166.057 39.1953 165.725 39.1953C165.184 39.1953 164.706 39.1009 164.289 38.9121C163.872 38.7168 163.547 38.401 163.312 37.9648C163.078 37.5286 162.961 36.9492 162.961 36.2266V25.8457ZM174.174 39.1953C173.393 39.1953 172.686 39.0684 172.055 38.8145C171.43 38.554 170.896 38.1927 170.453 37.7305C170.017 37.2682 169.682 36.7246 169.447 36.0996C169.213 35.4746 169.096 34.8008 169.096 34.0781V33.6875C169.096 32.8607 169.216 32.112 169.457 31.4414C169.698 30.7708 170.033 30.1979 170.463 29.7227C170.893 29.2409 171.4 28.873 171.986 28.6191C172.572 28.3652 173.207 28.2383 173.891 28.2383C174.646 28.2383 175.307 28.3652 175.873 28.6191C176.439 28.873 176.908 29.2311 177.279 29.6934C177.657 30.1491 177.937 30.6927 178.119 31.3242C178.308 31.9557 178.402 32.6523 178.402 33.4141V34.4199H170.238V32.7305H176.078V32.5449C176.065 32.1217 175.98 31.7246 175.824 31.3535C175.674 30.9824 175.443 30.6829 175.131 30.4551C174.818 30.2272 174.402 30.1133 173.881 30.1133C173.49 30.1133 173.142 30.1979 172.836 30.3672C172.536 30.5299 172.286 30.7676 172.084 31.0801C171.882 31.3926 171.726 31.7702 171.615 32.2129C171.511 32.6491 171.459 33.1406 171.459 33.6875V34.0781C171.459 34.5404 171.521 34.9701 171.645 35.3672C171.775 35.7578 171.964 36.0996 172.211 36.3926C172.458 36.6855 172.758 36.9167 173.109 37.0859C173.461 37.2487 173.861 37.3301 174.311 37.3301C174.877 37.3301 175.382 37.2161 175.824 36.9883C176.267 36.7604 176.651 36.4382 176.977 36.0215L178.217 37.2227C177.989 37.5547 177.693 37.8737 177.328 38.1797C176.964 38.4792 176.518 38.7233 175.99 38.9121C175.469 39.1009 174.864 39.1953 174.174 39.1953ZM183.258 24V39H180.895V24H183.258ZM188.855 24V39H186.492V24H188.855ZM198.291 36.5098V28.4336H200.654V39H198.428L198.291 36.5098ZM198.623 34.3125L199.414 34.293C199.414 35.0026 199.336 35.6569 199.18 36.2559C199.023 36.8483 198.783 37.3659 198.457 37.8086C198.132 38.2448 197.715 38.5866 197.207 38.834C196.699 39.0749 196.09 39.1953 195.381 39.1953C194.867 39.1953 194.395 39.1204 193.965 38.9707C193.535 38.821 193.164 38.5898 192.852 38.2773C192.546 37.9648 192.308 37.5579 192.139 37.0566C191.969 36.5553 191.885 35.9564 191.885 35.2598V28.4336H194.238V35.2793C194.238 35.6634 194.284 35.9857 194.375 36.2461C194.466 36.5 194.59 36.7051 194.746 36.8613C194.902 37.0176 195.085 37.1283 195.293 37.1934C195.501 37.2585 195.723 37.291 195.957 37.291C196.628 37.291 197.155 37.1608 197.539 36.9004C197.93 36.6335 198.206 36.2754 198.369 35.8262C198.538 35.377 198.623 34.8724 198.623 34.3125ZM209.494 36.1387C209.494 35.9043 209.436 35.6927 209.318 35.5039C209.201 35.3086 208.977 35.1328 208.645 34.9766C208.319 34.8203 207.837 34.6771 207.199 34.5469C206.639 34.4232 206.125 34.2767 205.656 34.1074C205.194 33.9316 204.797 33.7201 204.465 33.4727C204.133 33.2253 203.876 32.9323 203.693 32.5938C203.511 32.2552 203.42 31.8646 203.42 31.4219C203.42 30.9922 203.514 30.5853 203.703 30.2012C203.892 29.8171 204.162 29.4785 204.514 29.1855C204.865 28.8926 205.292 28.6615 205.793 28.4922C206.301 28.3229 206.867 28.2383 207.492 28.2383C208.378 28.2383 209.136 28.388 209.768 28.6875C210.406 28.9805 210.894 29.3809 211.232 29.8887C211.571 30.39 211.74 30.9564 211.74 31.5879H209.387C209.387 31.3079 209.315 31.0475 209.172 30.8066C209.035 30.5592 208.827 30.3607 208.547 30.2109C208.267 30.0547 207.915 29.9766 207.492 29.9766C207.089 29.9766 206.753 30.0417 206.486 30.1719C206.226 30.2956 206.031 30.4583 205.9 30.6602C205.777 30.862 205.715 31.0833 205.715 31.3242C205.715 31.5 205.747 31.6595 205.812 31.8027C205.884 31.9395 206.001 32.0664 206.164 32.1836C206.327 32.2943 206.548 32.3984 206.828 32.4961C207.115 32.5938 207.473 32.6882 207.902 32.7793C208.71 32.9486 209.403 33.1667 209.982 33.4336C210.568 33.694 211.018 34.0326 211.33 34.4492C211.643 34.8594 211.799 35.3802 211.799 36.0117C211.799 36.4805 211.698 36.9102 211.496 37.3008C211.301 37.6849 211.014 38.0202 210.637 38.3066C210.259 38.5866 209.807 38.8047 209.279 38.9609C208.758 39.1172 208.173 39.1953 207.521 39.1953C206.564 39.1953 205.754 39.026 205.09 38.6875C204.426 38.3424 203.921 37.903 203.576 37.3691C203.238 36.8288 203.068 36.2689 203.068 35.6895H205.344C205.37 36.1257 205.49 36.474 205.705 36.7344C205.926 36.9883 206.2 37.1738 206.525 37.291C206.857 37.4017 207.199 37.457 207.551 37.457C207.974 37.457 208.329 37.4017 208.615 37.291C208.902 37.1738 209.12 37.0176 209.27 36.8223C209.419 36.6204 209.494 36.3926 209.494 36.1387Z" fill="#0F172A"/>
<path d="M236.586 30.6569L232.636 26.7069C232.454 26.5183 232.353 26.2657 232.355 26.0035C232.358 25.7413 232.463 25.4905 232.648 25.3051C232.834 25.1197 233.084 25.0145 233.347 25.0122C233.609 25.01 233.861 25.1108 234.05 25.2929L239.707 30.9499C239.8 31.0426 239.874 31.1527 239.925 31.2741C239.975 31.3954 240.001 31.5255 240.001 31.6569C240.001 31.7883 239.975 31.9184 239.925 32.0398C239.874 32.1611 239.8 32.2713 239.707 32.3639L234.05 38.0209C233.958 38.1164 233.847 38.1926 233.725 38.245C233.603 38.2974 233.472 38.325 233.339 38.3262C233.207 38.3273 233.075 38.302 232.952 38.2517C232.829 38.2015 232.717 38.1272 232.624 38.0333C232.53 37.9394 232.455 37.8278 232.405 37.7049C232.355 37.582 232.33 37.4503 232.331 37.3175C232.332 37.1847 232.359 37.0535 232.412 36.9315C232.464 36.8095 232.54 36.6992 232.636 36.6069L236.586 32.6569H227C226.735 32.6569 226.48 32.5516 226.293 32.364C226.105 32.1765 226 31.9221 226 31.6569C226 31.3917 226.105 31.1373 226.293 30.9498C226.48 30.7623 226.735 30.6569 227 30.6569H236.586Z" fill="#0F172A"/>
</g>
<path d="M27 98.386V102C27.0001 103.285 27.275 104.556 27.8062 105.726C28.3374 106.897 29.1127 107.941 30.08 108.787L33 111.342L35.92 108.787C36.8874 107.941 37.6627 106.897 38.1939 105.727C38.7251 104.556 38.9999 103.285 39 102V98.386L33 96.136L27 98.386ZM25.649 96.756L33 94L40.351 96.757C40.5416 96.8284 40.7058 96.9563 40.8218 97.1236C40.9377 97.2908 40.9999 97.4895 41 97.693V102C41 105.177 39.628 108.2 37.237 110.293L33 114L28.763 110.293C27.581 109.259 26.6337 107.984 25.9847 106.553C25.3357 105.123 25 103.571 25 102V97.693C25.0001 97.4895 25.0623 97.2908 25.1782 97.1236C25.2942 96.9563 25.4584 96.8284 25.649 96.757V96.756ZM31.939 104.268L35.475 100.732C35.6636 100.55 35.9162 100.449 36.1784 100.451C36.4406 100.454 36.6914 100.559 36.8768 100.744C37.0622 100.93 37.1674 101.18 37.1697 101.443C37.172 101.705 37.0712 101.957 36.889 102.146L32.646 106.39C32.4585 106.577 32.2042 106.683 31.939 106.683C31.6738 106.683 31.4195 106.577 31.232 106.39L29.111 104.269C28.9288 104.08 28.828 103.828 28.8303 103.566C28.8326 103.303 28.9378 103.053 29.1232 102.867C29.3086 102.682 29.5594 102.577 29.8216 102.574C30.0838 102.572 30.3364 102.673 30.525 102.855L31.939 104.269V104.268Z" fill="#0F172A"/>
<path d="M70.8438 106.371H73.2852C73.207 107.302 72.9466 108.132 72.5039 108.861C72.0612 109.584 71.4395 110.154 70.6387 110.57C69.8379 110.987 68.8646 111.195 67.7188 111.195C66.8398 111.195 66.0488 111.039 65.3457 110.727C64.6426 110.408 64.0404 109.958 63.5391 109.379C63.0378 108.793 62.6536 108.087 62.3867 107.26C62.1263 106.433 61.9961 105.508 61.9961 104.486V103.305C61.9961 102.283 62.1296 101.358 62.3965 100.531C62.6699 99.7044 63.0605 98.998 63.5684 98.4121C64.0762 97.8197 64.6849 97.3672 65.3945 97.0547C66.1107 96.7422 66.9147 96.5859 67.8066 96.5859C68.9395 96.5859 69.8965 96.7943 70.6777 97.2109C71.459 97.6276 72.0645 98.2038 72.4941 98.9395C72.9303 99.6751 73.1973 100.518 73.2949 101.469H70.8535C70.7884 100.857 70.6452 100.333 70.4238 99.8965C70.209 99.4603 69.89 99.1283 69.4668 98.9004C69.0436 98.666 68.4902 98.5488 67.8066 98.5488C67.2467 98.5488 66.7585 98.653 66.3418 98.8613C65.9251 99.0697 65.5768 99.3757 65.2969 99.7793C65.0169 100.183 64.8053 100.681 64.6621 101.273C64.5254 101.859 64.457 102.53 64.457 103.285V104.486C64.457 105.202 64.5189 105.854 64.6426 106.439C64.7728 107.019 64.9681 107.517 65.2285 107.934C65.4954 108.35 65.834 108.673 66.2441 108.9C66.6543 109.128 67.1458 109.242 67.7188 109.242C68.4154 109.242 68.9785 109.132 69.4082 108.91C69.8444 108.689 70.1732 108.367 70.3945 107.943C70.6224 107.514 70.7721 106.99 70.8438 106.371ZM78.1406 102.445V111H75.7871V100.434H78.0332L78.1406 102.445ZM81.373 100.365L81.3535 102.553C81.2103 102.527 81.054 102.507 80.8848 102.494C80.722 102.481 80.5592 102.475 80.3965 102.475C79.9928 102.475 79.638 102.533 79.332 102.65C79.026 102.761 78.7689 102.924 78.5605 103.139C78.3587 103.347 78.2025 103.601 78.0918 103.9C77.9811 104.2 77.916 104.535 77.8965 104.906L77.3594 104.945C77.3594 104.281 77.4245 103.666 77.5547 103.1C77.6849 102.533 77.8802 102.035 78.1406 101.605C78.4076 101.176 78.7396 100.84 79.1367 100.6C79.5404 100.359 80.0059 100.238 80.5332 100.238C80.6764 100.238 80.8294 100.251 80.9922 100.277C81.1615 100.303 81.2884 100.333 81.373 100.365ZM88.9531 108.881V103.842C88.9531 103.464 88.8848 103.139 88.748 102.865C88.6113 102.592 88.403 102.38 88.123 102.23C87.8496 102.081 87.5046 102.006 87.0879 102.006C86.7038 102.006 86.3717 102.071 86.0918 102.201C85.8118 102.331 85.5938 102.507 85.4375 102.729C85.2812 102.95 85.2031 103.201 85.2031 103.48H82.8594C82.8594 103.064 82.9603 102.66 83.1621 102.27C83.3639 101.879 83.6569 101.531 84.041 101.225C84.4251 100.919 84.8841 100.678 85.418 100.502C85.9518 100.326 86.5508 100.238 87.2148 100.238C88.0091 100.238 88.7122 100.372 89.3242 100.639C89.9427 100.906 90.4277 101.309 90.7793 101.85C91.1374 102.383 91.3164 103.054 91.3164 103.861V108.559C91.3164 109.04 91.349 109.473 91.4141 109.857C91.4857 110.235 91.5866 110.564 91.7168 110.844V111H89.3047C89.194 110.746 89.1061 110.424 89.041 110.033C88.9824 109.636 88.9531 109.252 88.9531 108.881ZM89.2949 104.574L89.3145 106.029H87.625C87.1888 106.029 86.8047 106.072 86.4727 106.156C86.1406 106.234 85.8639 106.352 85.6426 106.508C85.4212 106.664 85.2552 106.853 85.1445 107.074C85.0339 107.296 84.9785 107.546 84.9785 107.826C84.9785 108.106 85.0436 108.363 85.1738 108.598C85.304 108.826 85.4928 109.005 85.7402 109.135C85.9941 109.265 86.3001 109.33 86.6582 109.33C87.14 109.33 87.5599 109.232 87.918 109.037C88.2826 108.835 88.569 108.591 88.7773 108.305C88.9857 108.012 89.0964 107.735 89.1094 107.475L89.8711 108.52C89.793 108.786 89.6595 109.073 89.4707 109.379C89.2819 109.685 89.0345 109.978 88.7285 110.258C88.429 110.531 88.0677 110.756 87.6445 110.932C87.2279 111.107 86.7461 111.195 86.1992 111.195C85.5091 111.195 84.8939 111.059 84.3535 110.785C83.8132 110.505 83.39 110.131 83.084 109.662C82.778 109.187 82.625 108.65 82.625 108.051C82.625 107.491 82.7292 106.996 82.9375 106.566C83.1523 106.13 83.4648 105.766 83.875 105.473C84.2917 105.18 84.7995 104.958 85.3984 104.809C85.9974 104.652 86.681 104.574 87.4492 104.574H89.2949ZM100.205 108.139C100.205 107.904 100.146 107.693 100.029 107.504C99.9121 107.309 99.6875 107.133 99.3555 106.977C99.0299 106.82 98.5482 106.677 97.9102 106.547C97.3503 106.423 96.8359 106.277 96.3672 106.107C95.9049 105.932 95.5078 105.72 95.1758 105.473C94.8438 105.225 94.5866 104.932 94.4043 104.594C94.222 104.255 94.1309 103.865 94.1309 103.422C94.1309 102.992 94.2253 102.585 94.4141 102.201C94.6029 101.817 94.873 101.479 95.2246 101.186C95.5762 100.893 96.0026 100.661 96.5039 100.492C97.0117 100.323 97.5781 100.238 98.2031 100.238C99.0885 100.238 99.847 100.388 100.479 100.688C101.117 100.98 101.605 101.381 101.943 101.889C102.282 102.39 102.451 102.956 102.451 103.588H100.098C100.098 103.308 100.026 103.048 99.8828 102.807C99.7461 102.559 99.5378 102.361 99.2578 102.211C98.9779 102.055 98.6263 101.977 98.2031 101.977C97.7995 101.977 97.4642 102.042 97.1973 102.172C96.9368 102.296 96.7415 102.458 96.6113 102.66C96.4876 102.862 96.4258 103.083 96.4258 103.324C96.4258 103.5 96.4583 103.66 96.5234 103.803C96.5951 103.939 96.7122 104.066 96.875 104.184C97.0378 104.294 97.2591 104.398 97.5391 104.496C97.8255 104.594 98.1836 104.688 98.6133 104.779C99.4206 104.949 100.114 105.167 100.693 105.434C101.279 105.694 101.729 106.033 102.041 106.449C102.354 106.859 102.51 107.38 102.51 108.012C102.51 108.48 102.409 108.91 102.207 109.301C102.012 109.685 101.725 110.02 101.348 110.307C100.97 110.587 100.518 110.805 99.9902 110.961C99.4694 111.117 98.8835 111.195 98.2324 111.195C97.2754 111.195 96.4648 111.026 95.8008 110.688C95.1367 110.342 94.6322 109.903 94.2871 109.369C93.9486 108.829 93.7793 108.269 93.7793 107.689H96.0547C96.0807 108.126 96.2012 108.474 96.416 108.734C96.6374 108.988 96.9108 109.174 97.2363 109.291C97.5684 109.402 97.9102 109.457 98.2617 109.457C98.6849 109.457 99.0397 109.402 99.3262 109.291C99.6126 109.174 99.8307 109.018 99.9805 108.822C100.13 108.62 100.205 108.393 100.205 108.139ZM115.209 111.195C114.428 111.195 113.721 111.068 113.09 110.814C112.465 110.554 111.931 110.193 111.488 109.73C111.052 109.268 110.717 108.725 110.482 108.1C110.248 107.475 110.131 106.801 110.131 106.078V105.688C110.131 104.861 110.251 104.112 110.492 103.441C110.733 102.771 111.068 102.198 111.498 101.723C111.928 101.241 112.436 100.873 113.021 100.619C113.607 100.365 114.242 100.238 114.926 100.238C115.681 100.238 116.342 100.365 116.908 100.619C117.475 100.873 117.943 101.231 118.314 101.693C118.692 102.149 118.972 102.693 119.154 103.324C119.343 103.956 119.438 104.652 119.438 105.414V106.42H111.273V104.73H117.113V104.545C117.1 104.122 117.016 103.725 116.859 103.354C116.71 102.982 116.479 102.683 116.166 102.455C115.854 102.227 115.437 102.113 114.916 102.113C114.525 102.113 114.177 102.198 113.871 102.367C113.572 102.53 113.321 102.768 113.119 103.08C112.917 103.393 112.761 103.77 112.65 104.213C112.546 104.649 112.494 105.141 112.494 105.688V106.078C112.494 106.54 112.556 106.97 112.68 107.367C112.81 107.758 112.999 108.1 113.246 108.393C113.493 108.686 113.793 108.917 114.145 109.086C114.496 109.249 114.896 109.33 115.346 109.33C115.912 109.33 116.417 109.216 116.859 108.988C117.302 108.76 117.686 108.438 118.012 108.021L119.252 109.223C119.024 109.555 118.728 109.874 118.363 110.18C117.999 110.479 117.553 110.723 117.025 110.912C116.505 111.101 115.899 111.195 115.209 111.195ZM128.541 100.434H130.68V110.707C130.68 111.658 130.478 112.465 130.074 113.129C129.671 113.793 129.107 114.298 128.385 114.643C127.662 114.994 126.826 115.17 125.875 115.17C125.471 115.17 125.022 115.111 124.527 114.994C124.039 114.877 123.564 114.688 123.102 114.428C122.646 114.174 122.265 113.839 121.959 113.422L123.062 112.035C123.44 112.484 123.857 112.813 124.312 113.021C124.768 113.23 125.247 113.334 125.748 113.334C126.288 113.334 126.747 113.233 127.125 113.031C127.509 112.836 127.805 112.546 128.014 112.162C128.222 111.778 128.326 111.309 128.326 110.756V102.826L128.541 100.434ZM121.363 105.834V105.629C121.363 104.828 121.461 104.099 121.656 103.441C121.852 102.777 122.132 102.208 122.496 101.732C122.861 101.251 123.303 100.883 123.824 100.629C124.345 100.368 124.934 100.238 125.592 100.238C126.275 100.238 126.858 100.362 127.34 100.609C127.828 100.857 128.235 101.212 128.561 101.674C128.886 102.13 129.14 102.676 129.322 103.314C129.511 103.946 129.651 104.649 129.742 105.424V106.078C129.658 106.833 129.514 107.523 129.312 108.148C129.111 108.773 128.844 109.314 128.512 109.77C128.18 110.225 127.77 110.577 127.281 110.824C126.799 111.072 126.23 111.195 125.572 111.195C124.928 111.195 124.345 111.062 123.824 110.795C123.31 110.528 122.867 110.154 122.496 109.672C122.132 109.19 121.852 108.624 121.656 107.973C121.461 107.315 121.363 106.602 121.363 105.834ZM123.717 105.629V105.834C123.717 106.316 123.762 106.765 123.854 107.182C123.951 107.598 124.098 107.966 124.293 108.285C124.495 108.598 124.749 108.845 125.055 109.027C125.367 109.203 125.735 109.291 126.158 109.291C126.712 109.291 127.164 109.174 127.516 108.939C127.874 108.705 128.147 108.389 128.336 107.992C128.531 107.589 128.668 107.139 128.746 106.645V104.877C128.707 104.493 128.626 104.135 128.502 103.803C128.385 103.471 128.225 103.181 128.023 102.934C127.822 102.68 127.568 102.484 127.262 102.348C126.956 102.204 126.594 102.133 126.178 102.133C125.755 102.133 125.387 102.224 125.074 102.406C124.762 102.589 124.505 102.839 124.303 103.158C124.107 103.477 123.961 103.848 123.863 104.271C123.766 104.695 123.717 105.147 123.717 105.629ZM138.279 111.195C137.498 111.195 136.792 111.068 136.16 110.814C135.535 110.554 135.001 110.193 134.559 109.73C134.122 109.268 133.787 108.725 133.553 108.1C133.318 107.475 133.201 106.801 133.201 106.078V105.688C133.201 104.861 133.322 104.112 133.562 103.441C133.803 102.771 134.139 102.198 134.568 101.723C134.998 101.241 135.506 100.873 136.092 100.619C136.678 100.365 137.312 100.238 137.996 100.238C138.751 100.238 139.412 100.365 139.979 100.619C140.545 100.873 141.014 101.231 141.385 101.693C141.762 102.149 142.042 102.693 142.225 103.324C142.413 103.956 142.508 104.652 142.508 105.414V106.42H134.344V104.73H140.184V104.545C140.171 104.122 140.086 103.725 139.93 103.354C139.78 102.982 139.549 102.683 139.236 102.455C138.924 102.227 138.507 102.113 137.986 102.113C137.596 102.113 137.247 102.198 136.941 102.367C136.642 102.53 136.391 102.768 136.189 103.08C135.988 103.393 135.831 103.77 135.721 104.213C135.617 104.649 135.564 105.141 135.564 105.688V106.078C135.564 106.54 135.626 106.97 135.75 107.367C135.88 107.758 136.069 108.1 136.316 108.393C136.564 108.686 136.863 108.917 137.215 109.086C137.566 109.249 137.967 109.33 138.416 109.33C138.982 109.33 139.487 109.216 139.93 108.988C140.372 108.76 140.757 108.438 141.082 108.021L142.322 109.223C142.094 109.555 141.798 109.874 141.434 110.18C141.069 110.479 140.623 110.723 140.096 110.912C139.575 111.101 138.969 111.195 138.279 111.195ZM149.688 100.434V102.152H143.73V100.434H149.688ZM145.449 97.8457H147.803V108.08C147.803 108.406 147.848 108.656 147.939 108.832C148.037 109.001 148.171 109.115 148.34 109.174C148.509 109.232 148.708 109.262 148.936 109.262C149.098 109.262 149.255 109.252 149.404 109.232C149.554 109.213 149.674 109.193 149.766 109.174L149.775 110.971C149.58 111.029 149.352 111.081 149.092 111.127C148.838 111.173 148.545 111.195 148.213 111.195C147.673 111.195 147.194 111.101 146.777 110.912C146.361 110.717 146.035 110.401 145.801 109.965C145.566 109.529 145.449 108.949 145.449 108.227V97.8457Z" fill="#0F172A"/>
<path d="M33.308 179.471L33.384 178.407L34.311 177.878C35.2011 177.362 36.0188 176.731 36.743 176C39.383 173.359 40.189 170.254 39.218 169.282C38.246 168.312 35.141 169.116 32.5 171.757C31.74 172.517 31.103 173.347 30.622 174.189L30.092 175.116L29.029 175.192C28.1566 175.253 27.3289 175.6 26.674 176.18C27.9239 176.73 29.0604 177.508 30.025 178.475C31.005 179.455 31.777 180.592 32.32 181.826C32.8995 181.171 33.2468 180.343 33.308 179.471ZM30.335 182.3C30.1339 182.573 29.9122 182.831 29.672 183.071C28.5 184.243 26.732 184.596 24.368 184.131C23.904 181.768 24.258 180 25.428 178.828C25.676 178.582 25.934 178.36 26.2 178.165C25.3802 177.764 24.5041 177.491 23.602 177.355C23.8924 176.443 24.3976 175.615 25.075 174.939C26.0934 173.918 27.4466 173.3 28.885 173.198C29.4888 172.153 30.2286 171.193 31.085 170.343C34.405 167.023 38.679 165.916 40.632 167.868C42.584 169.821 41.476 174.095 38.157 177.414C37.3069 178.27 36.3468 179.01 35.302 179.614C35.2003 181.052 34.5819 182.406 33.561 183.424C32.8858 184.102 32.0571 184.608 31.145 184.898C31.0086 183.996 30.7355 183.12 30.335 182.3ZM28.61 179.89C28.449 179.729 28.2674 179.589 28.07 179.475C27.638 179.625 27.13 179.955 26.665 180.419C26.446 180.639 26.178 181.378 26.175 182.324C27.121 182.321 27.863 182.05 28.08 181.834C28.545 181.368 28.875 180.861 29.024 180.429C28.9102 180.232 28.771 180.05 28.61 179.889V179.89ZM36.388 172.11C36.2903 172.018 36.2121 171.908 36.1579 171.785C36.1037 171.663 36.0747 171.531 36.0727 171.397C36.0706 171.263 36.0954 171.13 36.1458 171.005C36.1961 170.881 36.2709 170.768 36.3657 170.674C36.4605 170.579 36.5733 170.504 36.6975 170.454C36.8217 170.404 36.9548 170.379 37.0888 170.381C37.2228 170.383 37.3549 170.412 37.4774 170.467C37.6 170.521 37.7103 170.599 37.802 170.697C37.9744 170.887 38.0671 171.136 38.0609 171.393C38.0547 171.65 37.95 171.894 37.7685 172.076C37.5871 172.257 37.3428 172.362 37.0861 172.368C36.8295 172.375 36.5803 172.282 36.39 172.11H36.388Z" fill="#0F172A"/>
<path d="M66.5762 183H63.5391L63.5586 181.057H66.5762C67.4551 181.057 68.1908 180.865 68.7832 180.48C69.3822 180.096 69.8314 179.546 70.1309 178.83C70.4368 178.114 70.5898 177.261 70.5898 176.271V175.5C70.5898 174.732 70.502 174.051 70.3262 173.459C70.1569 172.867 69.903 172.368 69.5645 171.965C69.2324 171.561 68.8223 171.255 68.334 171.047C67.8522 170.839 67.2956 170.734 66.6641 170.734H63.4805V168.781H66.6641C67.6081 168.781 68.4707 168.941 69.252 169.26C70.0332 169.572 70.707 170.025 71.2734 170.617C71.8464 171.21 72.2858 171.919 72.5918 172.746C72.8978 173.573 73.0508 174.497 73.0508 175.52V176.271C73.0508 177.294 72.8978 178.218 72.5918 179.045C72.2858 179.872 71.8464 180.581 71.2734 181.174C70.7005 181.76 70.0169 182.212 69.2227 182.531C68.4349 182.844 67.5527 183 66.5762 183ZM64.8965 168.781V183H62.4453V168.781H64.8965ZM75.3281 177.834V177.609C75.3281 176.848 75.4388 176.141 75.6602 175.49C75.8815 174.833 76.2005 174.263 76.6172 173.781C77.0404 173.293 77.5547 172.915 78.1602 172.648C78.7721 172.375 79.4622 172.238 80.2305 172.238C81.0052 172.238 81.6953 172.375 82.3008 172.648C82.9128 172.915 83.4303 173.293 83.8535 173.781C84.2767 174.263 84.599 174.833 84.8203 175.49C85.0417 176.141 85.1523 176.848 85.1523 177.609V177.834C85.1523 178.596 85.0417 179.302 84.8203 179.953C84.599 180.604 84.2767 181.174 83.8535 181.662C83.4303 182.144 82.916 182.521 82.3105 182.795C81.7051 183.062 81.0182 183.195 80.25 183.195C79.4753 183.195 78.7819 183.062 78.1699 182.795C77.5645 182.521 77.0501 182.144 76.627 181.662C76.2038 181.174 75.8815 180.604 75.6602 179.953C75.4388 179.302 75.3281 178.596 75.3281 177.834ZM77.6816 177.609V177.834C77.6816 178.309 77.7305 178.758 77.8281 179.182C77.9258 179.605 78.0788 179.976 78.2871 180.295C78.4954 180.614 78.7624 180.865 79.0879 181.047C79.4134 181.229 79.8008 181.32 80.25 181.32C80.6862 181.32 81.0638 181.229 81.3828 181.047C81.7083 180.865 81.9753 180.614 82.1836 180.295C82.3919 179.976 82.5449 179.605 82.6426 179.182C82.7467 178.758 82.7988 178.309 82.7988 177.834V177.609C82.7988 177.141 82.7467 176.698 82.6426 176.281C82.5449 175.858 82.3887 175.484 82.1738 175.158C81.9655 174.833 81.6986 174.579 81.373 174.396C81.054 174.208 80.6732 174.113 80.2305 174.113C79.7878 174.113 79.4036 174.208 79.0781 174.396C78.7591 174.579 78.4954 174.833 78.2871 175.158C78.0788 175.484 77.9258 175.858 77.8281 176.281C77.7305 176.698 77.6816 177.141 77.6816 177.609ZM90.1445 168V183H87.7812V168H90.1445ZM92.7734 177.834V177.609C92.7734 176.848 92.8841 176.141 93.1055 175.49C93.3268 174.833 93.6458 174.263 94.0625 173.781C94.4857 173.293 95 172.915 95.6055 172.648C96.2174 172.375 96.9076 172.238 97.6758 172.238C98.4505 172.238 99.1406 172.375 99.7461 172.648C100.358 172.915 100.876 173.293 101.299 173.781C101.722 174.263 102.044 174.833 102.266 175.49C102.487 176.141 102.598 176.848 102.598 177.609V177.834C102.598 178.596 102.487 179.302 102.266 179.953C102.044 180.604 101.722 181.174 101.299 181.662C100.876 182.144 100.361 182.521 99.7559 182.795C99.1504 183.062 98.4635 183.195 97.6953 183.195C96.9206 183.195 96.2272 183.062 95.6152 182.795C95.0098 182.521 94.4954 182.144 94.0723 181.662C93.6491 181.174 93.3268 180.604 93.1055 179.953C92.8841 179.302 92.7734 178.596 92.7734 177.834ZM95.127 177.609V177.834C95.127 178.309 95.1758 178.758 95.2734 179.182C95.3711 179.605 95.5241 179.976 95.7324 180.295C95.9408 180.614 96.2077 180.865 96.5332 181.047C96.8587 181.229 97.2461 181.32 97.6953 181.32C98.1315 181.32 98.5091 181.229 98.8281 181.047C99.1536 180.865 99.4206 180.614 99.6289 180.295C99.8372 179.976 99.9902 179.605 100.088 179.182C100.192 178.758 100.244 178.309 100.244 177.834V177.609C100.244 177.141 100.192 176.698 100.088 176.281C99.9902 175.858 99.834 175.484 99.6191 175.158C99.4108 174.833 99.1439 174.579 98.8184 174.396C98.4993 174.208 98.1185 174.113 97.6758 174.113C97.2331 174.113 96.849 174.208 96.5234 174.396C96.2044 174.579 95.9408 174.833 95.7324 175.158C95.5241 175.484 95.3711 175.858 95.2734 176.281C95.1758 176.698 95.127 177.141 95.127 177.609ZM107.434 174.445V183H105.08V172.434H107.326L107.434 174.445ZM110.666 172.365L110.646 174.553C110.503 174.527 110.347 174.507 110.178 174.494C110.015 174.481 109.852 174.475 109.689 174.475C109.286 174.475 108.931 174.533 108.625 174.65C108.319 174.761 108.062 174.924 107.854 175.139C107.652 175.347 107.495 175.601 107.385 175.9C107.274 176.2 107.209 176.535 107.189 176.906L106.652 176.945C106.652 176.281 106.717 175.666 106.848 175.1C106.978 174.533 107.173 174.035 107.434 173.605C107.701 173.176 108.033 172.84 108.43 172.6C108.833 172.359 109.299 172.238 109.826 172.238C109.969 172.238 110.122 172.251 110.285 172.277C110.454 172.303 110.581 172.333 110.666 172.365ZM120.484 174.465V187.062H118.131V172.434H120.299L120.484 174.465ZM127.369 177.619V177.824C127.369 178.592 127.278 179.305 127.096 179.963C126.92 180.614 126.656 181.184 126.305 181.672C125.96 182.154 125.533 182.528 125.025 182.795C124.518 183.062 123.932 183.195 123.268 183.195C122.61 183.195 122.034 183.075 121.539 182.834C121.051 182.587 120.637 182.238 120.299 181.789C119.96 181.34 119.687 180.812 119.479 180.207C119.277 179.595 119.133 178.924 119.049 178.195V177.404C119.133 176.63 119.277 175.926 119.479 175.295C119.687 174.663 119.96 174.12 120.299 173.664C120.637 173.208 121.051 172.857 121.539 172.609C122.027 172.362 122.597 172.238 123.248 172.238C123.912 172.238 124.501 172.368 125.016 172.629C125.53 172.883 125.963 173.247 126.314 173.723C126.666 174.191 126.93 174.758 127.105 175.422C127.281 176.079 127.369 176.812 127.369 177.619ZM125.016 177.824V177.619C125.016 177.131 124.97 176.678 124.879 176.262C124.788 175.839 124.645 175.467 124.449 175.148C124.254 174.829 124.003 174.582 123.697 174.406C123.398 174.224 123.036 174.133 122.613 174.133C122.197 174.133 121.839 174.204 121.539 174.348C121.24 174.484 120.989 174.676 120.787 174.924C120.585 175.171 120.429 175.461 120.318 175.793C120.208 176.118 120.13 176.473 120.084 176.857V178.752C120.162 179.221 120.296 179.65 120.484 180.041C120.673 180.432 120.94 180.744 121.285 180.979C121.637 181.206 122.086 181.32 122.633 181.32C123.056 181.32 123.417 181.229 123.717 181.047C124.016 180.865 124.26 180.614 124.449 180.295C124.645 179.969 124.788 179.595 124.879 179.172C124.97 178.749 125.016 178.299 125.016 177.824ZM132.195 168V183H129.852V168H132.195ZM131.785 177.326L131.023 177.316C131.03 176.587 131.131 175.913 131.326 175.295C131.528 174.676 131.808 174.139 132.166 173.684C132.531 173.221 132.967 172.867 133.475 172.619C133.982 172.365 134.546 172.238 135.164 172.238C135.685 172.238 136.154 172.31 136.57 172.453C136.993 172.596 137.358 172.827 137.664 173.146C137.97 173.459 138.201 173.869 138.357 174.377C138.52 174.878 138.602 175.49 138.602 176.213V183H136.238V176.193C136.238 175.686 136.163 175.282 136.014 174.982C135.87 174.683 135.659 174.468 135.379 174.338C135.099 174.201 134.757 174.133 134.354 174.133C133.93 174.133 133.556 174.217 133.23 174.387C132.911 174.556 132.645 174.787 132.43 175.08C132.215 175.373 132.052 175.712 131.941 176.096C131.837 176.48 131.785 176.89 131.785 177.326ZM147.441 180.881V175.842C147.441 175.464 147.373 175.139 147.236 174.865C147.1 174.592 146.891 174.38 146.611 174.23C146.338 174.081 145.993 174.006 145.576 174.006C145.192 174.006 144.86 174.071 144.58 174.201C144.3 174.331 144.082 174.507 143.926 174.729C143.77 174.95 143.691 175.201 143.691 175.48H141.348C141.348 175.064 141.449 174.66 141.65 174.27C141.852 173.879 142.145 173.531 142.529 173.225C142.913 172.919 143.372 172.678 143.906 172.502C144.44 172.326 145.039 172.238 145.703 172.238C146.497 172.238 147.201 172.372 147.812 172.639C148.431 172.906 148.916 173.309 149.268 173.85C149.626 174.383 149.805 175.054 149.805 175.861V180.559C149.805 181.04 149.837 181.473 149.902 181.857C149.974 182.235 150.075 182.564 150.205 182.844V183H147.793C147.682 182.746 147.594 182.424 147.529 182.033C147.471 181.636 147.441 181.252 147.441 180.881ZM147.783 176.574L147.803 178.029H146.113C145.677 178.029 145.293 178.072 144.961 178.156C144.629 178.234 144.352 178.352 144.131 178.508C143.91 178.664 143.743 178.853 143.633 179.074C143.522 179.296 143.467 179.546 143.467 179.826C143.467 180.106 143.532 180.363 143.662 180.598C143.792 180.826 143.981 181.005 144.229 181.135C144.482 181.265 144.788 181.33 145.146 181.33C145.628 181.33 146.048 181.232 146.406 181.037C146.771 180.835 147.057 180.591 147.266 180.305C147.474 180.012 147.585 179.735 147.598 179.475L148.359 180.52C148.281 180.786 148.148 181.073 147.959 181.379C147.77 181.685 147.523 181.978 147.217 182.258C146.917 182.531 146.556 182.756 146.133 182.932C145.716 183.107 145.234 183.195 144.688 183.195C143.997 183.195 143.382 183.059 142.842 182.785C142.301 182.505 141.878 182.131 141.572 181.662C141.266 181.187 141.113 180.65 141.113 180.051C141.113 179.491 141.217 178.996 141.426 178.566C141.641 178.13 141.953 177.766 142.363 177.473C142.78 177.18 143.288 176.958 143.887 176.809C144.486 176.652 145.169 176.574 145.938 176.574H147.783ZM155.129 174.445V183H152.775V172.434H155.021L155.129 174.445ZM158.361 172.365L158.342 174.553C158.199 174.527 158.042 174.507 157.873 174.494C157.71 174.481 157.548 174.475 157.385 174.475C156.981 174.475 156.626 174.533 156.32 174.65C156.014 174.761 155.757 174.924 155.549 175.139C155.347 175.347 155.191 175.601 155.08 175.9C154.969 176.2 154.904 176.535 154.885 176.906L154.348 176.945C154.348 176.281 154.413 175.666 154.543 175.1C154.673 174.533 154.868 174.035 155.129 173.605C155.396 173.176 155.728 172.84 156.125 172.6C156.529 172.359 156.994 172.238 157.521 172.238C157.665 172.238 157.818 172.251 157.98 172.277C158.15 172.303 158.277 172.333 158.361 172.365ZM164.799 183.195C164.018 183.195 163.311 183.068 162.68 182.814C162.055 182.554 161.521 182.193 161.078 181.73C160.642 181.268 160.307 180.725 160.072 180.1C159.838 179.475 159.721 178.801 159.721 178.078V177.688C159.721 176.861 159.841 176.112 160.082 175.441C160.323 174.771 160.658 174.198 161.088 173.723C161.518 173.241 162.025 172.873 162.611 172.619C163.197 172.365 163.832 172.238 164.516 172.238C165.271 172.238 165.932 172.365 166.498 172.619C167.064 172.873 167.533 173.231 167.904 173.693C168.282 174.149 168.562 174.693 168.744 175.324C168.933 175.956 169.027 176.652 169.027 177.414V178.42H160.863V176.73H166.703V176.545C166.69 176.122 166.605 175.725 166.449 175.354C166.299 174.982 166.068 174.683 165.756 174.455C165.443 174.227 165.027 174.113 164.506 174.113C164.115 174.113 163.767 174.198 163.461 174.367C163.161 174.53 162.911 174.768 162.709 175.08C162.507 175.393 162.351 175.77 162.24 176.213C162.136 176.649 162.084 177.141 162.084 177.688V178.078C162.084 178.54 162.146 178.97 162.27 179.367C162.4 179.758 162.589 180.1 162.836 180.393C163.083 180.686 163.383 180.917 163.734 181.086C164.086 181.249 164.486 181.33 164.936 181.33C165.502 181.33 166.007 181.216 166.449 180.988C166.892 180.76 167.276 180.438 167.602 180.021L168.842 181.223C168.614 181.555 168.318 181.874 167.953 182.18C167.589 182.479 167.143 182.723 166.615 182.912C166.094 183.101 165.489 183.195 164.799 183.195ZM176.207 172.434V174.152H170.25V172.434H176.207ZM171.969 169.846H174.322V180.08C174.322 180.406 174.368 180.656 174.459 180.832C174.557 181.001 174.69 181.115 174.859 181.174C175.029 181.232 175.227 181.262 175.455 181.262C175.618 181.262 175.774 181.252 175.924 181.232C176.074 181.213 176.194 181.193 176.285 181.174L176.295 182.971C176.1 183.029 175.872 183.081 175.611 183.127C175.357 183.173 175.064 183.195 174.732 183.195C174.192 183.195 173.714 183.101 173.297 182.912C172.88 182.717 172.555 182.401 172.32 181.965C172.086 181.529 171.969 180.949 171.969 180.227V169.846ZM180.887 174.445V183H178.533V172.434H180.779L180.887 174.445ZM184.119 172.365L184.1 174.553C183.956 174.527 183.8 174.507 183.631 174.494C183.468 174.481 183.305 174.475 183.143 174.475C182.739 174.475 182.384 174.533 182.078 174.65C181.772 174.761 181.515 174.924 181.307 175.139C181.105 175.347 180.949 175.601 180.838 175.9C180.727 176.2 180.662 176.535 180.643 176.906L180.105 176.945C180.105 176.281 180.171 175.666 180.301 175.1C180.431 174.533 180.626 174.035 180.887 173.605C181.154 173.176 181.486 172.84 181.883 172.6C182.286 172.359 182.752 172.238 183.279 172.238C183.423 172.238 183.576 172.251 183.738 172.277C183.908 172.303 184.035 172.333 184.119 172.365ZM191.699 180.881V175.842C191.699 175.464 191.631 175.139 191.494 174.865C191.357 174.592 191.149 174.38 190.869 174.23C190.596 174.081 190.251 174.006 189.834 174.006C189.45 174.006 189.118 174.071 188.838 174.201C188.558 174.331 188.34 174.507 188.184 174.729C188.027 174.95 187.949 175.201 187.949 175.48H185.605C185.605 175.064 185.706 174.66 185.908 174.27C186.11 173.879 186.403 173.531 186.787 173.225C187.171 172.919 187.63 172.678 188.164 172.502C188.698 172.326 189.297 172.238 189.961 172.238C190.755 172.238 191.458 172.372 192.07 172.639C192.689 172.906 193.174 173.309 193.525 173.85C193.883 174.383 194.062 175.054 194.062 175.861V180.559C194.062 181.04 194.095 181.473 194.16 181.857C194.232 182.235 194.333 182.564 194.463 182.844V183H192.051C191.94 182.746 191.852 182.424 191.787 182.033C191.729 181.636 191.699 181.252 191.699 180.881ZM192.041 176.574L192.061 178.029H190.371C189.935 178.029 189.551 178.072 189.219 178.156C188.887 178.234 188.61 178.352 188.389 178.508C188.167 178.664 188.001 178.853 187.891 179.074C187.78 179.296 187.725 179.546 187.725 179.826C187.725 180.106 187.79 180.363 187.92 180.598C188.05 180.826 188.239 181.005 188.486 181.135C188.74 181.265 189.046 181.33 189.404 181.33C189.886 181.33 190.306 181.232 190.664 181.037C191.029 180.835 191.315 180.591 191.523 180.305C191.732 180.012 191.842 179.735 191.855 179.475L192.617 180.52C192.539 180.786 192.406 181.073 192.217 181.379C192.028 181.685 191.781 181.978 191.475 182.258C191.175 182.531 190.814 182.756 190.391 182.932C189.974 183.107 189.492 183.195 188.945 183.195C188.255 183.195 187.64 183.059 187.1 182.785C186.559 182.505 186.136 182.131 185.83 181.662C185.524 181.187 185.371 180.65 185.371 180.051C185.371 179.491 185.475 178.996 185.684 178.566C185.898 178.13 186.211 177.766 186.621 177.473C187.038 177.18 187.546 176.958 188.145 176.809C188.743 176.652 189.427 176.574 190.195 176.574H192.041Z" fill="#0F172A"/>
<path d="M26 241C25.7348 241 25.4804 241.105 25.2929 241.293C25.1054 241.48 25 241.735 25 242V251C25 251.265 25.1054 251.52 25.2929 251.707C25.4804 251.895 25.7348 252 26 252H40C40.2652 252 40.5196 251.895 40.7071 251.707C40.8946 251.52 41 251.265 41 251V242C41 241.735 40.8946 241.48 40.7071 241.293C40.5196 241.105 40.2652 241 40 241H26ZM26 239H40C40.7956 239 41.5587 239.316 42.1213 239.879C42.6839 240.441 43 241.204 43 242V251C43 251.796 42.6839 252.559 42.1213 253.121C41.5587 253.684 40.7956 254 40 254H26C25.2044 254 24.4413 253.684 23.8787 253.121C23.3161 252.559 23 251.796 23 251V242C23 241.204 23.3161 240.441 23.8787 239.879C24.4413 239.316 25.2044 239 26 239V239ZM30 255H36C36.2652 255 36.5196 255.105 36.7071 255.293C36.8946 255.48 37 255.735 37 256C37 256.265 36.8946 256.52 36.7071 256.707C36.5196 256.895 36.2652 257 36 257H30C29.7348 257 29.4804 256.895 29.2929 256.707C29.1054 256.52 29 256.265 29 256C29 255.735 29.1054 255.48 29.2929 255.293C29.4804 255.105 29.7348 255 30 255Z" fill="#0F172A"/>
<path d="M67.9824 242.676L63.7344 255H61.166L66.5176 240.781H68.1582L67.9824 242.676ZM71.5371 255L67.2793 242.676L67.0938 240.781H68.7441L74.1152 255H71.5371ZM71.332 249.727V251.67H63.5977V249.727H71.332ZM78.1504 246.582V255H75.7969V244.434H78.0137L78.1504 246.582ZM77.7695 249.326L76.9688 249.316C76.9688 248.587 77.0599 247.913 77.2422 247.295C77.4245 246.676 77.6914 246.139 78.043 245.684C78.3945 245.221 78.8307 244.867 79.3516 244.619C79.8789 244.365 80.4876 244.238 81.1777 244.238C81.6595 244.238 82.099 244.31 82.4961 244.453C82.8997 244.59 83.248 244.808 83.541 245.107C83.8405 245.407 84.0684 245.791 84.2246 246.26C84.3874 246.729 84.4688 247.295 84.4688 247.959V255H82.1152V248.164C82.1152 247.65 82.0371 247.246 81.8809 246.953C81.7311 246.66 81.513 246.452 81.2266 246.328C80.9466 246.198 80.6113 246.133 80.2207 246.133C79.778 246.133 79.4004 246.217 79.0879 246.387C78.7819 246.556 78.5312 246.787 78.3359 247.08C78.1406 247.373 77.9974 247.712 77.9062 248.096C77.8151 248.48 77.7695 248.89 77.7695 249.326ZM84.3223 248.701L83.2188 248.945C83.2188 248.307 83.3066 247.705 83.4824 247.139C83.6647 246.566 83.9284 246.064 84.2734 245.635C84.625 245.199 85.0579 244.857 85.5723 244.609C86.0866 244.362 86.6758 244.238 87.3398 244.238C87.8802 244.238 88.362 244.313 88.7852 244.463C89.2148 244.606 89.5794 244.834 89.8789 245.146C90.1784 245.459 90.4062 245.866 90.5625 246.367C90.7188 246.862 90.7969 247.461 90.7969 248.164V255H88.4336V248.154C88.4336 247.62 88.3555 247.207 88.1992 246.914C88.0495 246.621 87.8346 246.419 87.5547 246.309C87.2747 246.191 86.9395 246.133 86.5488 246.133C86.1842 246.133 85.862 246.201 85.582 246.338C85.3086 246.468 85.0775 246.654 84.8887 246.895C84.6999 247.129 84.5566 247.399 84.459 247.705C84.3678 248.011 84.3223 248.343 84.3223 248.701ZM98.377 255.195C97.5957 255.195 96.8893 255.068 96.2578 254.814C95.6328 254.554 95.099 254.193 94.6562 253.73C94.2201 253.268 93.8848 252.725 93.6504 252.1C93.416 251.475 93.2988 250.801 93.2988 250.078V249.688C93.2988 248.861 93.4193 248.112 93.6602 247.441C93.901 246.771 94.2363 246.198 94.666 245.723C95.0957 245.241 95.6035 244.873 96.1895 244.619C96.7754 244.365 97.4102 244.238 98.0938 244.238C98.849 244.238 99.5098 244.365 100.076 244.619C100.643 244.873 101.111 245.231 101.482 245.693C101.86 246.149 102.14 246.693 102.322 247.324C102.511 247.956 102.605 248.652 102.605 249.414V250.42H94.4414V248.73H100.281V248.545C100.268 248.122 100.184 247.725 100.027 247.354C99.8776 246.982 99.6465 246.683 99.334 246.455C99.0215 246.227 98.6048 246.113 98.084 246.113C97.6934 246.113 97.3451 246.198 97.0391 246.367C96.7396 246.53 96.4889 246.768 96.2871 247.08C96.0853 247.393 95.929 247.77 95.8184 248.213C95.7142 248.649 95.6621 249.141 95.6621 249.688V250.078C95.6621 250.54 95.724 250.97 95.8477 251.367C95.9779 251.758 96.1667 252.1 96.4141 252.393C96.6615 252.686 96.9609 252.917 97.3125 253.086C97.6641 253.249 98.0645 253.33 98.5137 253.33C99.0801 253.33 99.5846 253.216 100.027 252.988C100.47 252.76 100.854 252.438 101.18 252.021L102.42 253.223C102.192 253.555 101.896 253.874 101.531 254.18C101.167 254.479 100.721 254.723 100.193 254.912C99.6725 255.101 99.0671 255.195 98.377 255.195ZM109.785 244.434V246.152H103.828V244.434H109.785ZM105.547 241.846H107.9V252.08C107.9 252.406 107.946 252.656 108.037 252.832C108.135 253.001 108.268 253.115 108.438 253.174C108.607 253.232 108.805 253.262 109.033 253.262C109.196 253.262 109.352 253.252 109.502 253.232C109.652 253.213 109.772 253.193 109.863 253.174L109.873 254.971C109.678 255.029 109.45 255.081 109.189 255.127C108.936 255.173 108.643 255.195 108.311 255.195C107.77 255.195 107.292 255.101 106.875 254.912C106.458 254.717 106.133 254.401 105.898 253.965C105.664 253.529 105.547 252.949 105.547 252.227V241.846ZM114.309 252.734L114.299 254.414C114.299 255.078 114.133 255.762 113.801 256.465C113.469 257.168 113.029 257.747 112.482 258.203L111.223 257.471C111.405 257.178 111.571 256.882 111.721 256.582C111.87 256.283 111.991 255.964 112.082 255.625C112.173 255.286 112.219 254.912 112.219 254.502V252.734H114.309ZM125.738 255H123.385V243.418C123.385 242.63 123.531 241.969 123.824 241.436C124.124 240.895 124.55 240.488 125.104 240.215C125.657 239.935 126.311 239.795 127.066 239.795C127.301 239.795 127.532 239.811 127.76 239.844C127.988 239.87 128.209 239.912 128.424 239.971L128.365 241.787C128.235 241.755 128.092 241.732 127.936 241.719C127.786 241.706 127.623 241.699 127.447 241.699C127.089 241.699 126.78 241.768 126.52 241.904C126.266 242.035 126.07 242.227 125.934 242.48C125.803 242.734 125.738 243.047 125.738 243.418V255ZM127.916 244.434V246.152H121.764V244.434H127.916ZM132.488 246.445V255H130.135V244.434H132.381L132.488 246.445ZM135.721 244.365L135.701 246.553C135.558 246.527 135.402 246.507 135.232 246.494C135.07 246.481 134.907 246.475 134.744 246.475C134.34 246.475 133.986 246.533 133.68 246.65C133.374 246.761 133.117 246.924 132.908 247.139C132.706 247.347 132.55 247.601 132.439 247.9C132.329 248.2 132.264 248.535 132.244 248.906L131.707 248.945C131.707 248.281 131.772 247.666 131.902 247.1C132.033 246.533 132.228 246.035 132.488 245.605C132.755 245.176 133.087 244.84 133.484 244.6C133.888 244.359 134.354 244.238 134.881 244.238C135.024 244.238 135.177 244.251 135.34 244.277C135.509 244.303 135.636 244.333 135.721 244.365ZM140.215 244.434V255H137.852V244.434H140.215ZM137.695 241.66C137.695 241.302 137.812 241.006 138.047 240.771C138.288 240.531 138.62 240.41 139.043 240.41C139.46 240.41 139.788 240.531 140.029 240.771C140.27 241.006 140.391 241.302 140.391 241.66C140.391 242.012 140.27 242.305 140.029 242.539C139.788 242.773 139.46 242.891 139.043 242.891C138.62 242.891 138.288 242.773 138.047 242.539C137.812 242.305 137.695 242.012 137.695 241.66ZM145.627 246.689V255H143.273V244.434H145.49L145.627 246.689ZM145.207 249.326L144.445 249.316C144.452 248.568 144.556 247.881 144.758 247.256C144.966 246.631 145.253 246.094 145.617 245.645C145.988 245.195 146.431 244.85 146.945 244.609C147.46 244.362 148.033 244.238 148.664 244.238C149.172 244.238 149.631 244.31 150.041 244.453C150.458 244.59 150.812 244.814 151.105 245.127C151.405 245.439 151.633 245.846 151.789 246.348C151.945 246.842 152.023 247.451 152.023 248.174V255H149.66V248.164C149.66 247.656 149.585 247.256 149.436 246.963C149.292 246.663 149.081 246.452 148.801 246.328C148.527 246.198 148.186 246.133 147.775 246.133C147.372 246.133 147.01 246.217 146.691 246.387C146.372 246.556 146.102 246.787 145.881 247.08C145.666 247.373 145.5 247.712 145.383 248.096C145.266 248.48 145.207 248.89 145.207 249.326ZM161.693 244.434H163.832V254.707C163.832 255.658 163.63 256.465 163.227 257.129C162.823 257.793 162.26 258.298 161.537 258.643C160.814 258.994 159.978 259.17 159.027 259.17C158.624 259.17 158.174 259.111 157.68 258.994C157.191 258.877 156.716 258.688 156.254 258.428C155.798 258.174 155.417 257.839 155.111 257.422L156.215 256.035C156.592 256.484 157.009 256.813 157.465 257.021C157.921 257.23 158.399 257.334 158.9 257.334C159.441 257.334 159.9 257.233 160.277 257.031C160.661 256.836 160.958 256.546 161.166 256.162C161.374 255.778 161.479 255.309 161.479 254.756V246.826L161.693 244.434ZM154.516 249.834V249.629C154.516 248.828 154.613 248.099 154.809 247.441C155.004 246.777 155.284 246.208 155.648 245.732C156.013 245.251 156.456 244.883 156.977 244.629C157.497 244.368 158.087 244.238 158.744 244.238C159.428 244.238 160.01 244.362 160.492 244.609C160.98 244.857 161.387 245.212 161.713 245.674C162.038 246.13 162.292 246.676 162.475 247.314C162.663 247.946 162.803 248.649 162.895 249.424V250.078C162.81 250.833 162.667 251.523 162.465 252.148C162.263 252.773 161.996 253.314 161.664 253.77C161.332 254.225 160.922 254.577 160.434 254.824C159.952 255.072 159.382 255.195 158.725 255.195C158.08 255.195 157.497 255.062 156.977 254.795C156.462 254.528 156.02 254.154 155.648 253.672C155.284 253.19 155.004 252.624 154.809 251.973C154.613 251.315 154.516 250.602 154.516 249.834ZM156.869 249.629V249.834C156.869 250.316 156.915 250.765 157.006 251.182C157.104 251.598 157.25 251.966 157.445 252.285C157.647 252.598 157.901 252.845 158.207 253.027C158.52 253.203 158.887 253.291 159.311 253.291C159.864 253.291 160.316 253.174 160.668 252.939C161.026 252.705 161.299 252.389 161.488 251.992C161.684 251.589 161.82 251.139 161.898 250.645V248.877C161.859 248.493 161.778 248.135 161.654 247.803C161.537 247.471 161.378 247.181 161.176 246.934C160.974 246.68 160.72 246.484 160.414 246.348C160.108 246.204 159.747 246.133 159.33 246.133C158.907 246.133 158.539 246.224 158.227 246.406C157.914 246.589 157.657 246.839 157.455 247.158C157.26 247.477 157.113 247.848 157.016 248.271C156.918 248.695 156.869 249.147 156.869 249.629ZM169.293 244.434V255H166.93V244.434H169.293ZM166.773 241.66C166.773 241.302 166.891 241.006 167.125 240.771C167.366 240.531 167.698 240.41 168.121 240.41C168.538 240.41 168.867 240.531 169.107 240.771C169.348 241.006 169.469 241.302 169.469 241.66C169.469 242.012 169.348 242.305 169.107 242.539C168.867 242.773 168.538 242.891 168.121 242.891C167.698 242.891 167.366 242.773 167.125 242.539C166.891 242.305 166.773 242.012 166.773 241.66ZM174.891 240V255H172.527V240H174.891ZM180.488 240V255H178.125V240H180.488ZM189.523 252.881V247.842C189.523 247.464 189.455 247.139 189.318 246.865C189.182 246.592 188.973 246.38 188.693 246.23C188.42 246.081 188.075 246.006 187.658 246.006C187.274 246.006 186.942 246.071 186.662 246.201C186.382 246.331 186.164 246.507 186.008 246.729C185.852 246.95 185.773 247.201 185.773 247.48H183.43C183.43 247.064 183.531 246.66 183.732 246.27C183.934 245.879 184.227 245.531 184.611 245.225C184.995 244.919 185.454 244.678 185.988 244.502C186.522 244.326 187.121 244.238 187.785 244.238C188.579 244.238 189.283 244.372 189.895 244.639C190.513 244.906 190.998 245.309 191.35 245.85C191.708 246.383 191.887 247.054 191.887 247.861V252.559C191.887 253.04 191.919 253.473 191.984 253.857C192.056 254.235 192.157 254.564 192.287 254.844V255H189.875C189.764 254.746 189.676 254.424 189.611 254.033C189.553 253.636 189.523 253.252 189.523 252.881ZM189.865 248.574L189.885 250.029H188.195C187.759 250.029 187.375 250.072 187.043 250.156C186.711 250.234 186.434 250.352 186.213 250.508C185.992 250.664 185.826 250.853 185.715 251.074C185.604 251.296 185.549 251.546 185.549 251.826C185.549 252.106 185.614 252.363 185.744 252.598C185.874 252.826 186.063 253.005 186.311 253.135C186.564 253.265 186.87 253.33 187.229 253.33C187.71 253.33 188.13 253.232 188.488 253.037C188.853 252.835 189.139 252.591 189.348 252.305C189.556 252.012 189.667 251.735 189.68 251.475L190.441 252.52C190.363 252.786 190.23 253.073 190.041 253.379C189.852 253.685 189.605 253.978 189.299 254.258C188.999 254.531 188.638 254.756 188.215 254.932C187.798 255.107 187.316 255.195 186.77 255.195C186.079 255.195 185.464 255.059 184.924 254.785C184.383 254.505 183.96 254.131 183.654 253.662C183.348 253.187 183.195 252.65 183.195 252.051C183.195 251.491 183.299 250.996 183.508 250.566C183.723 250.13 184.035 249.766 184.445 249.473C184.862 249.18 185.37 248.958 185.969 248.809C186.568 248.652 187.251 248.574 188.02 248.574H189.865Z" fill="#0F172A"/>
<path d="M31 329.8C26.436 328.873 23 324.838 23 320C23 314.477 27.477 310 33 310C38.523 310 43 314.477 43 320C43 324.838 39.564 328.873 35 329.8V327.748C36.8853 327.261 38.5284 326.104 39.6212 324.492C40.714 322.88 41.1816 320.926 40.9362 318.994C40.6909 317.062 39.7495 315.287 38.2885 313.999C36.8275 312.712 34.9471 312.002 33 312.002C31.0529 312.002 29.1725 312.712 27.7115 313.999C26.2505 315.287 25.3091 317.062 25.0638 318.994C24.8184 320.926 25.286 322.88 26.3788 324.492C27.4716 326.104 29.1147 327.261 31 327.748V329.8ZM31 325.659C29.6656 325.187 28.5409 324.259 27.8247 323.038C27.1086 321.817 26.8471 320.383 27.0864 318.988C27.3258 317.593 28.0505 316.327 29.1327 315.415C30.2148 314.503 31.5846 314.002 33 314.002C34.4154 314.002 35.7852 314.503 36.8673 315.415C37.9495 316.327 38.6742 317.593 38.9136 318.988C39.1529 320.383 38.8914 321.817 38.1753 323.038C37.4591 324.259 36.3344 325.187 35 325.659V323.465C35.7626 323.025 36.3586 322.345 36.6955 321.532C37.0325 320.718 37.0916 319.816 36.8637 318.966C36.6358 318.115 36.1336 317.364 35.435 316.827C34.7365 316.291 33.8805 316.001 33 316.001C32.1195 316.001 31.2635 316.291 30.565 316.827C29.8664 317.364 29.3642 318.115 29.1363 318.966C28.9084 319.816 28.9675 320.718 29.3045 321.532C29.6414 322.345 30.2374 323.025 31 323.465V325.659ZM34 321.732V330H32V321.732C31.6187 321.512 31.3207 321.172 31.1522 320.765C30.9838 320.359 30.9542 319.908 31.0681 319.482C31.1821 319.057 31.4332 318.681 31.7825 318.413C32.1318 318.145 32.5597 318 33 318C33.4403 318 33.8682 318.145 34.2175 318.413C34.5668 318.681 34.8179 319.057 34.9319 319.482C35.0458 319.908 35.0162 320.359 34.8478 320.765C34.6793 321.172 34.3813 321.512 34 321.732Z" fill="#0F172A"/>
<path d="M67.9824 314.676L63.7344 327H61.166L66.5176 312.781H68.1582L67.9824 314.676ZM71.5371 327L67.2793 314.676L67.0938 312.781H68.7441L74.1152 327H71.5371ZM71.332 321.727V323.67H63.5977V321.727H71.332ZM78.1504 318.582V327H75.7969V316.434H78.0137L78.1504 318.582ZM77.7695 321.326L76.9688 321.316C76.9688 320.587 77.0599 319.913 77.2422 319.295C77.4245 318.676 77.6914 318.139 78.043 317.684C78.3945 317.221 78.8307 316.867 79.3516 316.619C79.8789 316.365 80.4876 316.238 81.1777 316.238C81.6595 316.238 82.099 316.31 82.4961 316.453C82.8997 316.59 83.248 316.808 83.541 317.107C83.8405 317.407 84.0684 317.791 84.2246 318.26C84.3874 318.729 84.4688 319.295 84.4688 319.959V327H82.1152V320.164C82.1152 319.65 82.0371 319.246 81.8809 318.953C81.7311 318.66 81.513 318.452 81.2266 318.328C80.9466 318.198 80.6113 318.133 80.2207 318.133C79.778 318.133 79.4004 318.217 79.0879 318.387C78.7819 318.556 78.5312 318.787 78.3359 319.08C78.1406 319.373 77.9974 319.712 77.9062 320.096C77.8151 320.48 77.7695 320.89 77.7695 321.326ZM84.3223 320.701L83.2188 320.945C83.2188 320.307 83.3066 319.705 83.4824 319.139C83.6647 318.566 83.9284 318.064 84.2734 317.635C84.625 317.199 85.0579 316.857 85.5723 316.609C86.0866 316.362 86.6758 316.238 87.3398 316.238C87.8802 316.238 88.362 316.313 88.7852 316.463C89.2148 316.606 89.5794 316.834 89.8789 317.146C90.1784 317.459 90.4062 317.866 90.5625 318.367C90.7188 318.862 90.7969 319.461 90.7969 320.164V327H88.4336V320.154C88.4336 319.62 88.3555 319.207 88.1992 318.914C88.0495 318.621 87.8346 318.419 87.5547 318.309C87.2747 318.191 86.9395 318.133 86.5488 318.133C86.1842 318.133 85.862 318.201 85.582 318.338C85.3086 318.468 85.0775 318.654 84.8887 318.895C84.6999 319.129 84.5566 319.399 84.459 319.705C84.3678 320.011 84.3223 320.343 84.3223 320.701ZM98.377 327.195C97.5957 327.195 96.8893 327.068 96.2578 326.814C95.6328 326.554 95.099 326.193 94.6562 325.73C94.2201 325.268 93.8848 324.725 93.6504 324.1C93.416 323.475 93.2988 322.801 93.2988 322.078V321.688C93.2988 320.861 93.4193 320.112 93.6602 319.441C93.901 318.771 94.2363 318.198 94.666 317.723C95.0957 317.241 95.6035 316.873 96.1895 316.619C96.7754 316.365 97.4102 316.238 98.0938 316.238C98.849 316.238 99.5098 316.365 100.076 316.619C100.643 316.873 101.111 317.231 101.482 317.693C101.86 318.149 102.14 318.693 102.322 319.324C102.511 319.956 102.605 320.652 102.605 321.414V322.42H94.4414V320.73H100.281V320.545C100.268 320.122 100.184 319.725 100.027 319.354C99.8776 318.982 99.6465 318.683 99.334 318.455C99.0215 318.227 98.6048 318.113 98.084 318.113C97.6934 318.113 97.3451 318.198 97.0391 318.367C96.7396 318.53 96.4889 318.768 96.2871 319.08C96.0853 319.393 95.929 319.77 95.8184 320.213C95.7142 320.649 95.6621 321.141 95.6621 321.688V322.078C95.6621 322.54 95.724 322.97 95.8477 323.367C95.9779 323.758 96.1667 324.1 96.4141 324.393C96.6615 324.686 96.9609 324.917 97.3125 325.086C97.6641 325.249 98.0645 325.33 98.5137 325.33C99.0801 325.33 99.5846 325.216 100.027 324.988C100.47 324.76 100.854 324.438 101.18 324.021L102.42 325.223C102.192 325.555 101.896 325.874 101.531 326.18C101.167 326.479 100.721 326.723 100.193 326.912C99.6725 327.101 99.0671 327.195 98.377 327.195ZM109.785 316.434V318.152H103.828V316.434H109.785ZM105.547 313.846H107.9V324.08C107.9 324.406 107.946 324.656 108.037 324.832C108.135 325.001 108.268 325.115 108.438 325.174C108.607 325.232 108.805 325.262 109.033 325.262C109.196 325.262 109.352 325.252 109.502 325.232C109.652 325.213 109.772 325.193 109.863 325.174L109.873 326.971C109.678 327.029 109.45 327.081 109.189 327.127C108.936 327.173 108.643 327.195 108.311 327.195C107.77 327.195 107.292 327.101 106.875 326.912C106.458 326.717 106.133 326.401 105.898 325.965C105.664 325.529 105.547 324.949 105.547 324.227V313.846ZM119.916 318.689V327H117.562V316.434H119.779L119.916 318.689ZM119.496 321.326L118.734 321.316C118.741 320.568 118.845 319.881 119.047 319.256C119.255 318.631 119.542 318.094 119.906 317.645C120.277 317.195 120.72 316.85 121.234 316.609C121.749 316.362 122.322 316.238 122.953 316.238C123.461 316.238 123.92 316.31 124.33 316.453C124.747 316.59 125.102 316.814 125.395 317.127C125.694 317.439 125.922 317.846 126.078 318.348C126.234 318.842 126.312 319.451 126.312 320.174V327H123.949V320.164C123.949 319.656 123.874 319.256 123.725 318.963C123.581 318.663 123.37 318.452 123.09 318.328C122.816 318.198 122.475 318.133 122.064 318.133C121.661 318.133 121.299 318.217 120.98 318.387C120.661 318.556 120.391 318.787 120.17 319.08C119.955 319.373 119.789 319.712 119.672 320.096C119.555 320.48 119.496 320.89 119.496 321.326ZM131.734 316.434V327H129.371V316.434H131.734ZM129.215 313.66C129.215 313.302 129.332 313.006 129.566 312.771C129.807 312.531 130.139 312.41 130.562 312.41C130.979 312.41 131.308 312.531 131.549 312.771C131.79 313.006 131.91 313.302 131.91 313.66C131.91 314.012 131.79 314.305 131.549 314.539C131.308 314.773 130.979 314.891 130.562 314.891C130.139 314.891 129.807 314.773 129.566 314.539C129.332 314.305 129.215 314.012 129.215 313.66ZM134.822 312H137.176V324.744L136.951 327H134.822V312ZM144.07 321.619V321.824C144.07 322.605 143.982 323.325 143.807 323.982C143.637 324.633 143.377 325.2 143.025 325.682C142.68 326.163 142.251 326.538 141.736 326.805C141.229 327.065 140.639 327.195 139.969 327.195C139.311 327.195 138.738 327.072 138.25 326.824C137.762 326.577 137.352 326.225 137.02 325.77C136.694 325.314 136.43 324.77 136.229 324.139C136.027 323.507 135.883 322.811 135.799 322.049V321.395C135.883 320.626 136.027 319.93 136.229 319.305C136.43 318.673 136.694 318.13 137.02 317.674C137.352 317.212 137.758 316.857 138.24 316.609C138.729 316.362 139.298 316.238 139.949 316.238C140.626 316.238 141.222 316.368 141.736 316.629C142.257 316.889 142.69 317.26 143.035 317.742C143.38 318.217 143.637 318.784 143.807 319.441C143.982 320.099 144.07 320.825 144.07 321.619ZM141.717 321.824V321.619C141.717 321.144 141.678 320.698 141.6 320.281C141.521 319.858 141.391 319.487 141.209 319.168C141.033 318.849 140.792 318.598 140.486 318.416C140.187 318.227 139.812 318.133 139.363 318.133C138.947 318.133 138.589 318.204 138.289 318.348C137.99 318.491 137.739 318.686 137.537 318.934C137.335 319.181 137.176 319.467 137.059 319.793C136.948 320.118 136.873 320.47 136.834 320.848V322.615C136.893 323.104 137.016 323.553 137.205 323.963C137.4 324.367 137.674 324.692 138.025 324.939C138.377 325.18 138.829 325.301 139.383 325.301C139.819 325.301 140.187 325.213 140.486 325.037C140.786 324.861 141.023 324.617 141.199 324.305C141.382 323.986 141.512 323.615 141.59 323.191C141.674 322.768 141.717 322.312 141.717 321.824ZM148.887 312V327H146.543V312H148.887ZM148.477 321.326L147.715 321.316C147.721 320.587 147.822 319.913 148.018 319.295C148.219 318.676 148.499 318.139 148.857 317.684C149.222 317.221 149.658 316.867 150.166 316.619C150.674 316.365 151.237 316.238 151.855 316.238C152.376 316.238 152.845 316.31 153.262 316.453C153.685 316.596 154.049 316.827 154.355 317.146C154.661 317.459 154.893 317.869 155.049 318.377C155.212 318.878 155.293 319.49 155.293 320.213V327H152.93V320.193C152.93 319.686 152.855 319.282 152.705 318.982C152.562 318.683 152.35 318.468 152.07 318.338C151.79 318.201 151.449 318.133 151.045 318.133C150.622 318.133 150.247 318.217 149.922 318.387C149.603 318.556 149.336 318.787 149.121 319.08C148.906 319.373 148.743 319.712 148.633 320.096C148.529 320.48 148.477 320.89 148.477 321.326Z" fill="#0F172A"/>
<path d="M32 396V385C32 384.735 32.1054 384.48 32.2929 384.293C32.4804 384.105 32.7348 384 33 384C33.2652 384 33.5196 384.105 33.7071 384.293C33.8946 384.48 34 384.735 34 385V396H35C35.2652 396 35.5196 396.105 35.7071 396.293C35.8946 396.48 36 396.735 36 397C36 397.265 35.8946 397.52 35.7071 397.707C35.5196 397.895 35.2652 398 35 398H34V399C34 399.265 33.8946 399.52 33.7071 399.707C33.5196 399.895 33.2652 400 33 400C32.7348 400 32.4804 399.895 32.2929 399.707C32.1054 399.52 32 399.265 32 399V398H31C30.7348 398 30.4804 397.895 30.2929 397.707C30.1054 397.52 30 397.265 30 397C30 396.735 30.1054 396.48 30.2929 396.293C30.4804 396.105 30.7348 396 31 396H32ZM39 386V385C39 384.735 39.1054 384.48 39.2929 384.293C39.4804 384.105 39.7348 384 40 384C40.2652 384 40.5196 384.105 40.7071 384.293C40.8946 384.48 41 384.735 41 385V386H42C42.2652 386 42.5196 386.105 42.7071 386.293C42.8946 386.48 43 386.735 43 387C43 387.265 42.8946 387.52 42.7071 387.707C42.5196 387.895 42.2652 388 42 388H41V399C41 399.265 40.8946 399.52 40.7071 399.707C40.5196 399.895 40.2652 400 40 400C39.7348 400 39.4804 399.895 39.2929 399.707C39.1054 399.52 39 399.265 39 399V388H38C37.7348 388 37.4804 387.895 37.2929 387.707C37.1054 387.52 37 387.265 37 387C37 386.735 37.1054 386.48 37.2929 386.293C37.4804 386.105 37.7348 386 38 386H39ZM27 389H28C28.2652 389 28.5196 389.105 28.7071 389.293C28.8946 389.48 29 389.735 29 390C29 390.265 28.8946 390.52 28.7071 390.707C28.5196 390.895 28.2652 391 28 391H27V399C27 399.265 26.8946 399.52 26.7071 399.707C26.5196 399.895 26.2652 400 26 400C25.7348 400 25.4804 399.895 25.2929 399.707C25.1054 399.52 25 399.265 25 399V391H24C23.7348 391 23.4804 390.895 23.2929 390.707C23.1054 390.52 23 390.265 23 390C23 389.735 23.1054 389.48 23.2929 389.293C23.4804 389.105 23.7348 389 24 389H25V385C25 384.735 25.1054 384.48 25.2929 384.293C25.4804 384.105 25.7348 384 26 384C26.2652 384 26.5196 384.105 26.7071 384.293C26.8946 384.48 27 384.735 27 385V389Z" fill="#0F172A"/>
<path d="M69.9258 395.338C69.9258 395.045 69.8802 394.785 69.7891 394.557C69.7044 394.329 69.5514 394.12 69.3301 393.932C69.1087 393.743 68.7962 393.561 68.3926 393.385C67.9954 393.202 67.4876 393.017 66.8691 392.828C66.1921 392.62 65.5671 392.389 64.9941 392.135C64.4277 391.874 63.9329 391.575 63.5098 391.236C63.0866 390.891 62.7578 390.497 62.5234 390.055C62.2891 389.605 62.1719 389.088 62.1719 388.502C62.1719 387.923 62.2923 387.395 62.5332 386.92C62.7806 386.445 63.1289 386.035 63.5781 385.689C64.0339 385.338 64.571 385.068 65.1895 384.879C65.8079 384.684 66.4915 384.586 67.2402 384.586C68.2949 384.586 69.2031 384.781 69.9648 385.172C70.7331 385.562 71.3223 386.087 71.7324 386.744C72.1491 387.402 72.3574 388.128 72.3574 388.922H69.9258C69.9258 388.453 69.8249 388.04 69.623 387.682C69.4277 387.317 69.1283 387.031 68.7246 386.822C68.3275 386.614 67.8229 386.51 67.2109 386.51C66.6315 386.51 66.1497 386.598 65.7656 386.773C65.3815 386.949 65.0951 387.187 64.9062 387.486C64.7174 387.786 64.623 388.124 64.623 388.502C64.623 388.769 64.6849 389.013 64.8086 389.234C64.9323 389.449 65.1211 389.651 65.375 389.84C65.6289 390.022 65.9479 390.195 66.332 390.357C66.7161 390.52 67.1686 390.676 67.6895 390.826C68.4772 391.061 69.1641 391.321 69.75 391.607C70.3359 391.887 70.8242 392.206 71.2148 392.564C71.6055 392.923 71.8984 393.329 72.0938 393.785C72.2891 394.234 72.3867 394.745 72.3867 395.318C72.3867 395.917 72.2663 396.458 72.0254 396.939C71.7845 397.415 71.4395 397.822 70.9902 398.16C70.5475 398.492 70.0137 398.749 69.3887 398.932C68.7702 399.107 68.0801 399.195 67.3184 399.195C66.6348 399.195 65.9609 399.104 65.2969 398.922C64.6393 398.74 64.0404 398.463 63.5 398.092C62.9596 397.714 62.5299 397.245 62.2109 396.686C61.8919 396.119 61.7324 395.458 61.7324 394.703H64.1836C64.1836 395.165 64.2617 395.559 64.418 395.885C64.5807 396.21 64.8053 396.477 65.0918 396.686C65.3783 396.887 65.7103 397.037 66.0879 397.135C66.472 397.232 66.8822 397.281 67.3184 397.281C67.8913 397.281 68.3698 397.2 68.7539 397.037C69.1445 396.874 69.4375 396.646 69.6328 396.354C69.8281 396.061 69.9258 395.722 69.9258 395.338ZM79.4785 399.195C78.6973 399.195 77.9909 399.068 77.3594 398.814C76.7344 398.554 76.2005 398.193 75.7578 397.73C75.3216 397.268 74.9863 396.725 74.752 396.1C74.5176 395.475 74.4004 394.801 74.4004 394.078V393.688C74.4004 392.861 74.5208 392.112 74.7617 391.441C75.0026 390.771 75.3379 390.198 75.7676 389.723C76.1973 389.241 76.7051 388.873 77.291 388.619C77.877 388.365 78.5117 388.238 79.1953 388.238C79.9505 388.238 80.6113 388.365 81.1777 388.619C81.7441 388.873 82.2129 389.231 82.584 389.693C82.9616 390.149 83.2415 390.693 83.4238 391.324C83.6126 391.956 83.707 392.652 83.707 393.414V394.42H75.543V392.73H81.3828V392.545C81.3698 392.122 81.2852 391.725 81.1289 391.354C80.9792 390.982 80.748 390.683 80.4355 390.455C80.123 390.227 79.7064 390.113 79.1855 390.113C78.7949 390.113 78.4466 390.198 78.1406 390.367C77.8411 390.53 77.5905 390.768 77.3887 391.08C77.1868 391.393 77.0306 391.77 76.9199 392.213C76.8158 392.649 76.7637 393.141 76.7637 393.688V394.078C76.7637 394.54 76.8255 394.97 76.9492 395.367C77.0794 395.758 77.2682 396.1 77.5156 396.393C77.763 396.686 78.0625 396.917 78.4141 397.086C78.7656 397.249 79.166 397.33 79.6152 397.33C80.1816 397.33 80.6862 397.216 81.1289 396.988C81.5716 396.76 81.9557 396.438 82.2812 396.021L83.5215 397.223C83.2936 397.555 82.9974 397.874 82.6328 398.18C82.2682 398.479 81.8223 398.723 81.2949 398.912C80.7741 399.101 80.1686 399.195 79.4785 399.195ZM92.4883 396.812V384H94.8516V399H92.7129L92.4883 396.812ZM85.6133 393.834V393.629C85.6133 392.828 85.7077 392.099 85.8965 391.441C86.0853 390.777 86.3587 390.208 86.7168 389.732C87.0749 389.251 87.5111 388.883 88.0254 388.629C88.5397 388.368 89.1191 388.238 89.7637 388.238C90.4017 388.238 90.9616 388.362 91.4434 388.609C91.9251 388.857 92.3353 389.212 92.6738 389.674C93.0124 390.13 93.2826 390.676 93.4844 391.314C93.6862 391.946 93.8294 392.649 93.9141 393.424V394.078C93.8294 394.833 93.6862 395.523 93.4844 396.148C93.2826 396.773 93.0124 397.314 92.6738 397.77C92.3353 398.225 91.9219 398.577 91.4336 398.824C90.9518 399.072 90.3887 399.195 89.7441 399.195C89.1061 399.195 88.5299 399.062 88.0156 398.795C87.5078 398.528 87.0749 398.154 86.7168 397.672C86.3587 397.19 86.0853 396.624 85.8965 395.973C85.7077 395.315 85.6133 394.602 85.6133 393.834ZM87.9668 393.629V393.834C87.9668 394.316 88.0091 394.765 88.0938 395.182C88.1849 395.598 88.3249 395.966 88.5137 396.285C88.7025 396.598 88.9466 396.845 89.2461 397.027C89.5521 397.203 89.9167 397.291 90.3398 397.291C90.8737 397.291 91.3132 397.174 91.6582 396.939C92.0033 396.705 92.2734 396.389 92.4688 395.992C92.6706 395.589 92.8073 395.139 92.8789 394.645V392.877C92.8398 392.493 92.7585 392.135 92.6348 391.803C92.5176 391.471 92.3581 391.181 92.1562 390.934C91.9544 390.68 91.7038 390.484 91.4043 390.348C91.1113 390.204 90.763 390.133 90.3594 390.133C89.9297 390.133 89.5651 390.224 89.2656 390.406C88.9661 390.589 88.7188 390.839 88.5234 391.158C88.3346 391.477 88.1947 391.848 88.1035 392.271C88.0124 392.695 87.9668 393.147 87.9668 393.629ZM106.73 397.135L109.318 388.434H111.76L108.088 399H106.564L106.73 397.135ZM104.748 388.434L107.385 397.174L107.512 399H105.988L102.297 388.434H104.748ZM118.236 399.195C117.455 399.195 116.749 399.068 116.117 398.814C115.492 398.554 114.958 398.193 114.516 397.73C114.079 397.268 113.744 396.725 113.51 396.1C113.275 395.475 113.158 394.801 113.158 394.078V393.688C113.158 392.861 113.279 392.112 113.52 391.441C113.76 390.771 114.096 390.198 114.525 389.723C114.955 389.241 115.463 388.873 116.049 388.619C116.635 388.365 117.27 388.238 117.953 388.238C118.708 388.238 119.369 388.365 119.936 388.619C120.502 388.873 120.971 389.231 121.342 389.693C121.719 390.149 121.999 390.693 122.182 391.324C122.37 391.956 122.465 392.652 122.465 393.414V394.42H114.301V392.73H120.141V392.545C120.128 392.122 120.043 391.725 119.887 391.354C119.737 390.982 119.506 390.683 119.193 390.455C118.881 390.227 118.464 390.113 117.943 390.113C117.553 390.113 117.204 390.198 116.898 390.367C116.599 390.53 116.348 390.768 116.146 391.08C115.945 391.393 115.788 391.77 115.678 392.213C115.574 392.649 115.521 393.141 115.521 393.688V394.078C115.521 394.54 115.583 394.97 115.707 395.367C115.837 395.758 116.026 396.1 116.273 396.393C116.521 396.686 116.82 396.917 117.172 397.086C117.523 397.249 117.924 397.33 118.373 397.33C118.939 397.33 119.444 397.216 119.887 396.988C120.329 396.76 120.714 396.438 121.039 396.021L122.279 397.223C122.051 397.555 121.755 397.874 121.391 398.18C121.026 398.479 120.58 398.723 120.053 398.912C119.532 399.101 118.926 399.195 118.236 399.195ZM127.32 384V399H124.957V384H127.32ZM132.918 388.434V399H130.555V388.434H132.918ZM130.398 385.66C130.398 385.302 130.516 385.006 130.75 384.771C130.991 384.531 131.323 384.41 131.746 384.41C132.163 384.41 132.492 384.531 132.732 384.771C132.973 385.006 133.094 385.302 133.094 385.66C133.094 386.012 132.973 386.305 132.732 386.539C132.492 386.773 132.163 386.891 131.746 386.891C131.323 386.891 130.991 386.773 130.75 386.539C130.516 386.305 130.398 386.012 130.398 385.66ZM140.84 388.434V390.152H134.883V388.434H140.84ZM136.602 385.846H138.955V396.08C138.955 396.406 139.001 396.656 139.092 396.832C139.189 397.001 139.323 397.115 139.492 397.174C139.661 397.232 139.86 397.262 140.088 397.262C140.251 397.262 140.407 397.252 140.557 397.232C140.706 397.213 140.827 397.193 140.918 397.174L140.928 398.971C140.732 399.029 140.505 399.081 140.244 399.127C139.99 399.173 139.697 399.195 139.365 399.195C138.825 399.195 138.346 399.101 137.93 398.912C137.513 398.717 137.188 398.401 136.953 397.965C136.719 397.529 136.602 396.949 136.602 396.227V385.846Z" fill="#0F172A"/>
<defs>
<filter id="filter0_dd_1_1236" x="0" y="0" width="266" height="69" filterUnits="userSpaceOnUse" color-interpolation-filters="sRGB">
<feFlood flood-opacity="0" result="BackgroundImageFix"/>
<feColorMatrix in="SourceAlpha" type="matrix" values="0 0 0 0 0 0 0 0 0 0 0 0 0 0 0 0 0 0 127 0" result="hardAlpha"/>
<feOffset/>
<feGaussianBlur stdDeviation="2"/>
<feColorMatrix type="matrix" values="0 0 0 0 0 0 0 0 0 0 0 0 0 0 0 0 0 0 0.07 0"/>
<feBlend mode="normal" in2="BackgroundImageFix" result="effect1_dropShadow_1_1236"/>
<feColorMatrix in="SourceAlpha" type="matrix" values="0 0 0 0 0 0 0 0 0 0 0 0 0 0 0 0 0 0 127 0" result="hardAlpha"/>
<feMorphology radius="1" operator="erode" in="SourceAlpha" result="effect2_dropShadow_1_1236"/>
<feOffset dy="4"/>
<feGaussianBlur stdDeviation="3"/>
<feColorMatrix type="matrix" values="0 0 0 0 0 0 0 0 0 0 0 0 0 0 0 0 0 0 0.1 0"/>
<feBlend mode="normal" in2="effect1_dropShadow_1_1236" result="effect2_dropShadow_1_1236"/>
<feBlend mode="normal" in="SourceGraphic" in2="effect2_dropShadow_1_1236" result="shape"/>
</filter>
</defs>
</svg>
